  0
SECTION
  2
HEADER
  9
$ACADVER
  1
AC1014
  9
$ACADMAINTVER
 70
     0
  9
$DWGCODEPAGE
  3
ANSI_1252
  9
$INSBASE
 10
0.0
 20
0.0
 30
0.0
  9
$EXTMIN
 10
0.0
 20
0.0
 30
0.0
  9
$EXTMAX
 10
210.0
 20
297.0
 30
0.0
  9
$LIMMIN
 10
0.0
 20
0.0
  9
$LIMMAX
 10
12.0
 20
9.0
  9
$ORTHOMODE
 70
     0
  9
$REGENMODE
 70
     1
  9
$FILLMODE
 70
     0
  9
$QTEXTMODE
 70
     0
  9
$MIRRTEXT
 70
     1
  9
$DRAGMODE
 70
     2
  9
$LTSCALE
 40
1.0
  9
$OSMODE
 70
    37
  9
$ATTMODE
 70
     1
  9
$TEXTSIZE
 40
0.2
  9
$TRACEWID
 40
0.05
  9
$TEXTSTYLE
  7
STANDARD
  9
$CLAYER
  8
0
  9
$CELTYPE
  6
BYLAYER
  9
$CECOLOR
 62
   256
  9
$CELTSCALE
 40
1.0
  9
$DELOBJ
 70
     1
  9
$DISPSILH
 70
     0
  9
$DIMSCALE
 40
1.0
  9
$DIMASZ
 40
0.18
  9
$DIMEXO
 40
0.0625
  9
$DIMDLI
 40
0.38
  9
$DIMRND
 40
0.0
  9
$DIMDLE
 40
0.0
  9
$DIMEXE
 40
0.18
  9
$DIMTP
 40
0.0
  9
$DIMTM
 40
0.0
  9
$DIMTXT
 40
0.18
  9
$DIMCEN
 40
0.09
  9
$DIMTSZ
 40
0.0
  9
$DIMTOL
 70
     0
  9
$DIMLIM
 70
     0
  9
$DIMTIH
 70
     0
  9
$DIMTOH
 70
     0
  9
$DIMSE1
 70
     0
  9
$DIMSE2
 70
     0
  9
$DIMTAD
 70
     1
  9
$DIMZIN
 70
     0
  9
$DIMBLK
  1

  9
$DIMASO
 70
     1
  9
$DIMSHO
 70
     1
  9
$DIMPOST
  1

  9
$DIMAPOST
  1

  9
$DIMALT
 70
     0
  9
$DIMALTD
 70
     2
  9
$DIMALTF
 40
25.4
  9
$DIMLFAC
 40
1.0
  9
$DIMTOFL
 70
     0
  9
$DIMTVP
 40
0.0
  9
$DIMTIX
 70
     0
  9
$DIMSOXD
 70
     0
  9
$DIMSAH
 70
     0
  9
$DIMBLK1
  1

  9
$DIMBLK2
  1

  9
$DIMSTYLE
  2
STANDARD
  9
$DIMCLRD
 70
     0
  9
$DIMCLRE
 70
     0
  9
$DIMCLRT
 70
     0
  9
$DIMTFAC
 40
1.0
  9
$DIMGAP
 40
0.09
  9
$DIMJUST
 70
     0
  9
$DIMSD1
 70
     0
  9
$DIMSD2
 70
     0
  9
$DIMTOLJ
 70
     1
  9
$DIMTZIN
 70
     0
  9
$DIMALTZ
 70
     0
  9
$DIMALTTZ
 70
     0
  9
$DIMFIT
 70
     5
  9
$DIMUPT
 70
     0
  9
$DIMUNIT
 70
     2
  9
$DIMDEC
 70
     2
  9
$DIMTDEC
 70
     4
  9
$DIMALTU
 70
     2
  9
$DIMALTTD
 70
     2
  9
$DIMTXSTY
  7
STANDARD
  9
$DIMAUNIT
 70
     0
  9
$LUNITS
 70
     2
  9
$LUPREC
 70
     4
  9
$SKETCHINC
 40
0.1
  9
$FILLETRAD
 40
0.5
  9
$AUNITS
 70
     0
  9
$AUPREC
 70
     0
  9
$MENU
  1
.
  9
$ELEVATION
 40
0.0
  9
$PELEVATION
 40
0.0
  9
$THICKNESS
 40
0.0
  9
$LIMCHECK
 70
     0
  9
$BLIPMODE
 70
     0
  9
$CHAMFERA
 40
0.5
  9
$CHAMFERB
 40
0.5
  9
$CHAMFERC
 40
1.0
  9
$CHAMFERD
 40
0.0
  9
$SKPOLY
 70
     0
  9
$TDCREATE
 40
2450772.666465926
  9
$TDUPDATE
 40
2459600.882499989
  9
$TDINDWG
 40
0.0011564931
  9
$TDUSRTIMER
 40
0.0011564931
  9
$USRTIMER
 70
     1
  9
$ANGBASE
 50
0.0
  9
$ANGDIR
 70
     0
  9
$PDMODE
 70
     0
  9
$PDSIZE
 40
0.0
  9
$PLINEWID
 40
0.0
  9
$COORDS
 70
     1
  9
$SPLFRAME
 70
     0
  9
$SPLINETYPE
 70
     6
  9
$SPLINESEGS
 70
     8
  9
$ATTDIA
 70
     0
  9
$ATTREQ
 70
     1
  9
$HANDLING
 70
     1
  9
$HANDSEED
  5
A1
  9
$SURFTAB1
 70
     6
  9
$SURFTAB2
 70
     6
  9
$SURFTYPE
 70
     6
  9
$SURFU
 70
     6
  9
$SURFV
 70
     6
  9
$UCSNAME
  2

  9
$UCSORG
 10
0.0
 20
0.0
 30
0.0
  9
$UCSXDIR
 10
1.0
 20
0.0
 30
0.0
  9
$UCSYDIR
 10
0.0
 20
1.0
 30
0.0
  9
$PUCSNAME
  2

  9
$PUCSORG
 10
0.0
 20
0.0
 30
0.0
  9
$PUCSXDIR
 10
1.0
 20
0.0
 30
0.0
  9
$PUCSYDIR
 10
0.0
 20
1.0
 30
0.0
  9
$USERI1
 70
     0
  9
$USERI2
 70
     0
  9
$USERI3
 70
     0
  9
$USERI4
 70
     0
  9
$USERI5
 70
     0
  9
$USERR1
 40
0.0
  9
$USERR2
 40
0.0
  9
$USERR3
 40
0.0
  9
$USERR4
 40
0.0
  9
$USERR5
 40
0.0
  9
$WORLDVIEW
 70
     1
  9
$SHADEDGE
 70
     3
  9
$SHADEDIF
 70
    70
  9
$TILEMODE
 70
     1
  9
$MAXACTVP
 70
    48
  9
$PINSBASE
 10
0.0
 20
0.0
 30
0.0
  9
$PLIMCHECK
 70
     0
  9
$PEXTMIN
 10
0.0
 20
0.0
 30
0.0
  9
$PEXTMAX
 10
0.0
 20
0.0
 30
0.0
  9
$PLIMMIN
 10
0.0
 20
0.0
  9
$PLIMMAX
 10
12.0
 20
9.0
  9
$UNITMODE
 70
     0
  9
$VISRETAIN
 70
     1
  9
$PLINEGEN
 70
     0
  9
$PSLTSCALE
 70
     1
  9
$TREEDEPTH
 70
  3020
  9
$PICKSTYLE
 70
     1
  9
$CMLSTYLE
  2
STANDARD
  9
$CMLJUST
 70
     0
  9
$CMLSCALE
 40
1.0
  9
$PROXYGRAPHICS
 70
     1
  9
$MEASUREMENT
 70
     0
  0
ENDSEC
  0
SECTION
  2
CLASSES
  0
CLASS
  1
LWPOLYLINE
  2
AcDbPolyline
  3
ObjectDBX Classes
 90
       20
280
     0
281
     1
  0
CLASS
  1
IMAGE
  2
AcDbRasterImage
  3
ISM
 90
       21
280
     0
281
     1
  0
CLASS
  1
OLE2FRAME
  2
AcDbOle2Frame
  3
ObjectDBX Classes
 90
       21
280
     0
281
     1
  0
CLASS
  1
HATCH
  2
AcDbHatch
  3
ObjectDBX Classes
 90
       20
280
     0
281
     1
  0
CLASS
  1
DICTIONARYVAR
  2
AcDbDictionaryVar
  3
ObjectDBX Classes
 90
       20
280
     0
281
     0
  0
CLASS
  1
RASTERVARIABLES
  2
AcDbRasterVariables
  3
ISM
 90
       21
280
     0
281
     0
  0
CLASS
  1
IMAGEDEF
  2
AcDbRasterImageDef
  3
ISM
 90
       21
280
     0
281
     0
  0
CLASS
  1
IMAGEDEF_REACTOR
  2
AcDbRasterImageDefReactor
  3
ISM
 90
       21
280
     0
281
     0
  0
CLASS
  1
IDBUFFER
  2
AcDbIdBuffer
  3
ObjectDBX Classes
 90
       20
280
     0
281
     0
  0
CLASS
  1
SPATIAL_FILTER
  2
AcDbSpatialFilter
  3
ObjectDBX Classes
 90
       20
280
     0
281
     0
  0
CLASS
  1
XRECORD
  2
AcDbXrecord
  3
ObjectDBX Classes
 90
       21
280
     0
281
     0
  0
CLASS
  1
ACDBDICTIONARYWDFLT
  2
AcDbDictionaryWithDefault
  3
ObjectDBX Classes
 90
       22
280
     0
281
     0
  0
CLASS
  1
SCALE
  2
AcDbScale
  3
ObjectDBX Classes
 90
       27
280
     0
281
     0
  0
CLASS
  1
VISUALSTYLE
  2
AcDbVisualStyle
  3
ObjectDBX Classes
 90
       26
280
     0
281
     0
  0
CLASS
  1
MATERIAL
  2
AcDbMaterial
  3
ObjectDBX Classes
 90
       23
280
     0
281
     0
  0
CLASS
  1
TABLESTYLE
  2
AcDbTableStyle
  3
ObjectDBX Classes
 90
       25
280
     0
281
     0
  0
CLASS
  1
MLEADERSTYLE
  2
AcDbMLeaderStyle
  3
ACDB_MLEADERSTYLE_CLASS
 90
       27
280
     0
281
     0
  0
CLASS
  1
SORTENTSTABLE
  2
AcDbSortentsTable
  3
"AutoCAD"
 90
        0
280
     0
281
     0
  0
CLASS
  1
LAYER_INDEX
  2
AcDbLayerIndex
  3
"Acad"
 90
        0
280
     0
281
     0
  0
CLASS
  1
SPATIAL_INDEX
  2
AcDbSpatialIndex
  3
"Acad"
 90
        0
280
     0
281
     0
  0
CLASS
  1
OBJECT_PTR
  2
CAseDLPNTableRecord
  3
"ASE-LPNTableRecord"
 90
        1
280
     0
281
     0
  0
CLASS
  1
LAYOUT
  2
AcDbLayout
  3
"AutoCAD 2000"
 90
        1
280
     0
281
     0
  0
CLASS
  1
PLOTSETTINGS
  2
AcDbPlotsettings
  3
"AutoCAD 2000"
 90
        1
280
     0
281
     0
  0
CLASS
  1
ACDBPLACEHOLDER
  2
AcDbPlaceholder
  3
"AutoCAD 2000"
 90
        1
280
     0
281
     0
  0
CLASS
  1
VBA_PROJECT
  2
AcDbVbaProject
  3
"AutoCAD 2000"
 90
        1
280
     0
281
     0
  0
CLASS
  1
WIPEOUT
  2
AcDbWipeout
  3
"AutoCAD 2000"
 90
        1
280
     0
281
     1
  0
CLASS
  1
WIPEOUTVARIABLES
  2
AcDbWipeoutVariables
  3
"AutoCAD 2000"
 90
        1
280
     0
281
     0
  0
CLASS
  1
RTEXT
  2
RText
  3
RText|AutoCAD Express Tool|expresstools@autodesk.com
 90
        1
280
     0
281
     1
  0
CLASS
  1
ARCALIGNEDTEXT
  2
AcDbArcAlignedText
  3
RText|AutoCAD Express Tool|expresstools@autodesk.com
 90
        1
280
     0
281
     1
  0
ENDSEC
  0
SECTION
  2
TABLES
  0
TABLE
  2
VPORT
  5
8
100
AcDbSymbolTable
 70
     1
  0
VPORT
  5
25
100
AcDbSymbolTableRecord
100
AcDbViewportTableRecord
  2
*ACTIVE
 70
     0
 10
0.0
 20
0.0
 11
1.0
 21
1.0
 12
105.0
 22
148.5
 13
0.0
 23
0.0
 14
0.5
 24
0.5
 15
0.5
 25
0.5
 16
0.0
 26
0.0
 36
1.0
 17
0.0
 27
0.0
 37
0.0
 40
297.0
 41
0.707071
 42
50.0
 43
0.0
 44
0.0
 50
0.0
 51
0.0
 71
     0
 72
   100
 73
     1
 74
     1
 75
     0
 76
     0
 77
     0
 78
     0
  0
ENDTAB
  0
TABLE
  2
LTYPE
  5
5
100
AcDbSymbolTable
 70
     3
  0
LTYPE
  5
12
100
AcDbSymbolTableRecord
100
AcDbLinetypeTableRecord
  2
BYBLOCK
 70
     0
  3

 72
    65
 73
     0
 40
0.0
  0
LTYPE
  5
13
100
AcDbSymbolTableRecord
100
AcDbLinetypeTableRecord
  2
BYLAYER
 70
     0
  3

 72
    65
 73
     0
 40
0.0
  0
LTYPE
  5
14
100
AcDbSymbolTableRecord
100
AcDbLinetypeTableRecord
  2
CONTINUOUS
 70
     0
  3
Solid line
 72
    65
 73
     0
 40
0.0
  0
ENDTAB
  0
TABLE
  2
LAYER
  5
2
100
AcDbSymbolTable
 70
     4
  0
LAYER
  5
E
100
AcDbSymbolTableRecord
100
AcDbLayerTableRecord
  2
0
 70
     0
 62
     7
  6
CONTINUOUS
  0
LAYER
  5
74
100
AcDbSymbolTableRecord
100
AcDbLayerTableRecord
  2
LETTER2022BOLD
 70
     0
 62
    -7
  6
CONTINUOUS
  0
LAYER
  5
79
100
AcDbSymbolTableRecord
100
AcDbLayerTableRecord
  2
2022OUTLINE-OUTSIDE
 70
     0
 62
     7
  6
CONTINUOUS
  0
LAYER
  5
8B
100
AcDbSymbolTableRecord
100
AcDbLayerTableRecord
  2
2022OUTLINE-INSIDE
 70
     0
 62
     7
  6
CONTINUOUS
  0
ENDTAB
  0
TABLE
  2
STYLE
  5
3
100
AcDbSymbolTable
 70
     1
  0
STYLE
  5
F
100
AcDbSymbolTableRecord
100
AcDbTextStyleTableRecord
  2
STANDARD
 70
     0
 40
0.0
 41
1.0
 50
0.0
 71
     0
 42
0.2
  3
txt.shx
  4

  0
ENDTAB
  0
TABLE
  2
VIEW
  5
6
100
AcDbSymbolTable
 70
     0
  0
ENDTAB
  0
TABLE
  2
UCS
  5
7
100
AcDbSymbolTable
 70
     0
  0
ENDTAB
  0
TABLE
  2
APPID
  5
9
100
AcDbSymbolTable
 70
     1
  0
APPID
  5
10
100
AcDbSymbolTableRecord
100
AcDbRegAppTableRecord
  2
ACAD
 70
     0
  0
ENDTAB
  0
TABLE
  2
DIMSTYLE
  5
A
100
AcDbSymbolTable
 70
     1
  0
DIMSTYLE
105
1D
100
AcDbSymbolTableRecord
100
AcDbDimStyleTableRecord
  2
STANDARD
 70
     0
  3

  4

  5

  6

  7

 40
1.0
 41
0.18
 42
0.0625
 43
0.38
 44
0.18
 45
0.0
 46
0.0
 47
0.0
 48
0.0
 71
     0
 72
     0
 73
     1
 74
     1
 75
     0
 76
     0
 77
     0
 78
     0
140
0.18
141
0.09
142
0.0
143
25.4
144
1.0
145
0.0
146
1.0
147
0.09
170
     0
171
     2
172
     0
173
     0
174
     0
175
     0
176
     0
177
     0
178
     0
270
     2
271
     4
272
     4
273
     2
274
     2
275
     0
280
     0
281
     0
282
     0
283
     1
284
     0
285
     0
286
     0
287
     3
288
     0
340
F
  0
ENDTAB
  0
TABLE
  2
BLOCK_RECORD
  5
1
100
AcDbSymbolTable
 70
     0
  0
BLOCK_RECORD
  5
18
100
AcDbSymbolTableRecord
100
AcDbBlockTableRecord
  2
*MODEL_SPACE
  0
BLOCK_RECORD
  5
15
100
AcDbSymbolTableRecord
100
AcDbBlockTableRecord
  2
*PAPER_SPACE
  0
ENDTAB
  0
ENDSEC
  0
SECTION
  2
BLOCKS
  0
BLOCK
  5
19
100
AcDbEntity
  8
0
100
AcDbBlockBegin
  2
*MODEL_SPACE
 70
     0
 10
0.0
 20
0.0
 30
0.0
  3
*MODEL_SPACE
  1

  0
ENDBLK
  5
1A
100
AcDbEntity
  8
0
100
AcDbBlockEnd
  0
BLOCK
  5
16
100
AcDbEntity
 67
     1
  8
0
100
AcDbBlockBegin
  2
*PAPER_SPACE
 70
     0
 10
0.0
 20
0.0
 30
0.0
  3
*PAPER_SPACE
  1

  0
ENDBLK
  5
17
100
AcDbEntity
 67
     1
  8
0
100
AcDbBlockEnd
  0
ENDSEC
  0
SECTION
  2
ENTITIES
  0
MTEXT
  5
75
100
AcDbEntity
  8
LETTER2022BOLD
100
AcDbMText
 10
23.382292
 20
56.529172
 30
0.0
 40
38.524757
 41
46.5
 71
     5
 72
     5
  1
\C7;\fArial Rounded MT Bold|b1|i0|;\H38.524756759778;2
  0
MTEXT
  5
76
100
AcDbEntity
  8
LETTER2022BOLD
100
AcDbMText
 10
46.882291
 20
56.529172
 30
0.0
 40
38.524757
 41
46.5
 71
     5
 72
     5
  1
\C7;\fArial Rounded MT Bold|b1|i0|;\H38.524756759778;0
  0
MTEXT
  5
77
100
AcDbEntity
  8
LETTER2022BOLD
100
AcDbMText
 10
69.882292
 20
56.529172
 30
0.0
 40
38.524757
 41
46.5
 71
     5
 72
     5
  1
\C7;\fArial Rounded MT Bold|b1|i0|;\H38.524756759778;2
  0
MTEXT
  5
78
100
AcDbEntity
  8
LETTER2022BOLD
100
AcDbMText
 10
94.382293
 20
56.529172
 30
0.0
 40
38.524757
 41
46.5
 71
     5
 72
     5
  1
\C7;\fArial Rounded MT Bold|b1|i0|;\H38.524756759778;2
  0
SPLINE
  5
7A
100
AcDbEntity
  8
2022OUTLINE-OUTSIDE
  6
CONTINUOUS
100
AcDbSpline
210
0.0
220
0.0
230
1.0
 70
     8
 71
     3
 72
    32
 73
    28
 74
     0
 42
0.0000001
 43
0.0000001
 40
0.0
 40
0.0
 40
0.0
 40
0.0
 40
0.73263531396005
 40
0.73263531396005
 40
0.73263531396005
 40
0.8460072626019099
 40
0.8460072626019099
 40
0.8460072626019099
 40
0.9914341801079199
 40
0.9914341801079199
 40
0.9914341801079199
 40
1.3836978513025
 40
1.3836978513025
 40
1.3836978513025
 40
1.6343913053054
 40
1.6343913053054
 40
1.6343913053054
 40
1.7666193530932
 40
1.7666193530932
 40
1.7666193530932
 40
1.9559235477879999
 40
1.9559235477879999
 40
1.9559235477879999
 40
2.1072376931236998
 40
2.1072376931236998
 40
2.1072376931236998
 40
2.4191183534081002
 40
2.4191183534081002
 40
2.4191183534081002
 40
2.4191183534081002
 10
9.6322903319797089
 20
44.729160078697646
 30
0.0
 10
10.4034938663132781
 20
50.1023934493675327
 30
0.0
 10
13.4231253883922097
 20
52.4816085743547802
 30
0.0
 10
21.4129264675547084
 20
59.1690894493985695
 30
0.0
 10
22.6493114743187114
 20
60.2039463882630486
 30
0.0
 10
24.0047128595096986
 20
61.3419696640081256
 30
0.0
 10
25.005549947645715
 20
62.2786909327150724
 30
0.0
 10
26.2893653393457072
 20
63.4802622940827987
 30
0.0
 10
26.9897713918697022
 20
64.3506060843841112
 30
0.0
 10
27.4798130472397126
 20
65.2515241553700349
 30
0.0
 10
28.8016146921487
 20
67.6815930589190344
 30
0.0
 10
28.5928970049197133
 20
70.3341070543509375
 30
0.0
 10
26.7426345266437124
 20
71.8289773845288551
 30
0.0
 10
25.5601424287177146
 20
72.7843404065941115
 30
0.0
 10
23.7071753937147172
 20
73.266873769760366
 30
0.0
 10
22.1135497178007085
 20
72.3942042562755006
 30
0.0
 10
21.2729932187537116
 20
71.9339154681573945
 30
0.0
 10
20.504586160038702
 20
71.0966057165102683
 30
0.0
 10
19.889277376896711
 20
70.0115229379338047
 30
0.0
 10
19.008370975947912
 20
68.4580649158866379
 30
0.0
 10
18.4412578281842094
 20
66.396766398049607
 30
0.0
 10
17.3034077104174102
 20
65.206909031544285
 30
0.0
 10
16.3939042608630174
 20
64.2558352807779016
 30
0.0
 10
15.1197521791033029
 20
63.8615325831969329
 30
0.0
 10
13.9398844811733102
 20
63.9135221447906261
 30
0.0
 10
11.5080039992649095
 20
64.0206802611824486
 30
0.0
 10
9.4766743130933087
 20
66.0238333693462494
 30
0.0
 10
9.6322903319797089
 20
68.5291666666668249
 30
0.0
  0
SPLINE
  5
7B
100
AcDbEntity
  8
2022OUTLINE-OUTSIDE
  6
CONTINUOUS
100
AcDbSpline
210
0.0
220
0.0
230
1.0
 70
     8
 71
     3
 72
    20
 73
    16
 74
     0
 42
0.0000001
 43
0.0000001
 40
0.0
 40
0.0
 40
0.0
 40
0.0
 40
0.65069978019216
 40
0.65069978019216
 40
0.65069978019216
 40
0.98066701761916
 40
0.98066701761916
 40
0.98066701761916
 40
1.1430995267338
 40
1.1430995267338
 40
1.1430995267338
 40
1.2868007169322
 40
1.2868007169322
 40
1.2868007169322
 40
1.4658269226389
 40
1.4658269226389
 40
1.4658269226389
 40
1.4658269226389
 10
9.6322903319797089
 20
68.5291666666668249
 30
0.0
 10
9.6322903319797266
 20
70.5291666666669528
 30
0.0
 10
10.3902802819074989
 20
73.853568230912316
 30
0.0
 10
13.26018127058361
 20
76.6637325919340071
 30
0.0
 10
14.71549650158431
 20
78.0887556196786505
 30
0.0
 10
16.7138818942477094
 20
79.3815444406015587
 30
0.0
 10
20.1940242799767056
 20
79.9784822691112396
 30
0.0
 10
21.9071890905147022
 20
80.2723360166118596
 30
0.0
 10
23.9794256606767071
 20
80.3975653260616951
 30
0.0
 10
26.1394268572437127
 20
80.3845375915772991
 30
0.0
 10
28.0503420088277267
 20
80.373012183510113
 30
0.0
 10
30.0299472895567128
 20
80.2532780973908899
 30
0.0
 10
31.7222370191887073
 20
79.4916601861457508
 30
0.0
 10
33.8305299904147176
 20
78.542819298605707
 30
0.0
 10
35.4928879028876949
 20
76.5977270763307843
 30
0.0
 10
36.1322885887618028
 20
74.9291592363747441
 30
0.0
  0
SPLINE
  5
7C
100
AcDbEntity
  8
2022OUTLINE-OUTSIDE
  6
CONTINUOUS
100
AcDbSpline
210
0.0
220
0.0
230
1.0
 70
     8
 71
     3
 72
    20
 73
    16
 74
     0
 42
0.0000001
 43
0.0000001
 40
0.0
 40
0.0
 40
0.0
 40
0.0
 40
0.20554133733473
 40
0.20554133733473
 40
0.20554133733473
 40
0.90563983146053
 40
0.90563983146053
 40
0.90563983146053
 40
1.0621450825768
 40
1.0621450825768
 40
1.0621450825768
 40
1.1215045486055
 40
1.1215045486055
 40
1.1215045486055
 40
1.2105484332005001
 40
1.2105484332005001
 40
1.2105484332005001
 40
1.2105484332005001
 10
36.1322885887618028
 20
74.9291592363747441
 30
0.0
 10
36.9322885664487188
 20
76.7691591850543205
 30
0.0
 10
37.5425812644426884
 20
77.4353390990664252
 30
0.0
 10
38.3097045728387045
 20
78.0092034783508126
 30
0.0
 10
40.922618743686705
 20
79.9638545134141623
 30
0.0
 10
45.355027485243717
 20
80.8474926014577022
 30
0.0
 10
50.5210499635337058
 20
80.2441389312487274
 30
0.0
 10
51.6759012480607112
 20
80.1092607413073381
 30
0.0
 10
52.8674137595137239
 20
79.900072407544755
 30
0.0
 10
54.2847069141717142
 20
79.1077195840945251
 30
0.0
 10
54.8222592599646745
 20
78.8071952235967643
 30
0.0
 10
55.3922910694627433
 20
78.4227802797106079
 30
0.0
 10
55.9846862164077024
 20
77.9014298854684739
 30
0.0
 10
56.8733256976617199
 20
77.1193631412011769
 30
0.0
 10
57.8122879840747075
 20
76.0291592056940857
 30
0.0
 10
58.4322879667816864
 20
74.5291666666667965
 30
0.0
  0
SPLINE
  5
7D
100
AcDbEntity
  8
2022OUTLINE-OUTSIDE
  6
CONTINUOUS
100
AcDbSpline
210
0.0
220
0.0
230
1.0
 70
     8
 71
     3
 72
    20
 73
    16
 74
     0
 42
0.0000001
 43
0.0000001
 40
0.0
 40
0.0
 40
0.0
 40
0.0
 40
0.46444731776022
 40
0.46444731776022
 40
0.46444731776022
 40
0.70592927739462
 40
0.70592927739462
 40
0.70592927739462
 40
0.89110566797415
 40
0.89110566797415
 40
0.89110566797415
 40
1.0403263705017001
 40
1.0403263705017001
 40
1.0403263705017001
 40
1.163695716848
 40
1.163695716848
 40
1.163695716848
 40
1.163695716848
 10
58.4322879667816864
 20
74.5291666666667965
 30
0.0
 10
59.1322879472577299
 20
76.1291592029048587
 30
0.0
 10
61.9689373869986824
 20
78.6514270566898404
 30
0.0
 10
66.0724272371027013
 20
79.749171279653666
 30
0.0
 10
68.2059711988197108
 20
80.3199258432005081
 30
0.0
 10
70.6819818795626844
 20
80.5055869648060707
 30
0.0
 10
72.9686426434207078
 20
80.2850990860352454
 30
0.0
 10
74.7221300980206848
 20
80.1160216542526342
 30
0.0
 10
76.3642735151947107
 20
79.7081151263620029
 30
0.0
 10
77.8166608581077099
 20
79.0921870230585142
 30
0.0
 10
78.9870382424677331
 20
78.595853640634644
 30
0.0
 10
80.0341952257056732
 20
77.9644389330704399
 30
0.0
 10
80.9230696581787186
 20
77.1137902809511075
 30
0.0
 10
81.6579533295496987
 20
76.4105100630942786
 30
0.0
 10
82.2846464313376629
 20
75.5573772858807899
 30
0.0
 10
82.832287286229402
 20
74.5291666666667254
 30
0.0
  0
SPLINE
  5
7E
100
AcDbEntity
  8
2022OUTLINE-OUTSIDE
  6
CONTINUOUS
100
AcDbSpline
210
0.0
220
0.0
230
1.0
 70
     8
 71
     3
 72
    29
 73
    25
 74
     0
 42
0.0000001
 43
0.0000001
 40
0.0
 40
0.0
 40
0.0
 40
0.0
 40
0.51769897919339
 40
0.51769897919339
 40
0.51769897919339
 40
0.78344700327735
 40
0.78344700327735
 40
0.78344700327735
 40
0.9037678867665
 40
0.9037678867665
 40
0.9037678867665
 40
1.1968383198674
 40
1.1968383198674
 40
1.1968383198674
 40
1.3579212224034001
 40
1.3579212224034001
 40
1.3579212224034001
 40
2.8714629627020001
 40
2.8714629627020001
 40
2.8714629627020001
 40
2.9276690311536999
 40
2.9276690311536999
 40
2.9276690311536999
 40
2.9874454446195999
 40
2.9874454446195999
 40
2.9874454446195999
 40
2.9874454446195999
 10
82.832287286229402
 20
74.5291666666667254
 30
0.0
 10
83.4822872680996682
 20
76.0291592056940999
 30
0.0
 10
85.4332917479497667
 20
78.1738452442019565
 30
0.0
 10
88.7311226716017103
 20
79.3859655649632714
 30
0.0
 10
90.4239829764236731
 20
80.0081776865640819
 30
0.0
 10
92.471736013570748
 20
80.3846559965318335
 30
0.0
 10
96.0404931909256874
 20
80.350435973472571
 30
0.0
 10
97.6562945426687605
 20
80.334942411773909
 30
0.0
 10
99.5838931816897031
 20
80.2352580035528717
 30
0.0
 10
101.20668131926071
 20
79.8212957302746418
 30
0.0
 10
105.1593718956367098
 20
78.8129911101720779
 30
0.0
 10
107.303673236211722
 20
75.9401289846237972
 30
0.0
 10
108.1508963574247133
 20
74.4126655010718565
 30
0.0
 10
108.6165631188806771
 20
73.5731121935444463
 30
0.0
 10
108.6903788008997367
 20
73.1400077048084825
 30
0.0
 10
108.7613614610336867
 20
72.6966688246084232
 30
0.0
 10
109.428317526882708
 20
68.5310380238533838
 30
0.0
 10
109.8451585334396725
 20
63.4618577512732998
 30
0.0
 10
104.1420277176607101
 20
57.8827329742432113
 30
0.0
 10
103.9302393325197045
 20
57.6755496103693517
 30
0.0
 10
103.7100112469056228
 20
57.467663011415695
 30
0.0
 10
101.6370752946657348
 20
55.6373644868255752
 30
0.0
 10
99.4324614516616521
 20
53.6908009860183881
 30
0.0
 10
95.1322869431637628
 20
49.9091599342200922
 30
0.0
 10
93.1322906891505085
 20
48.1791599824719512
 30
0.0
  0
SPLINE
  5
7F
100
AcDbEntity
  8
2022OUTLINE-OUTSIDE
  6
CONTINUOUS
100
AcDbSpline
210
0.0
220
0.0
230
1.0
 70
     8
 71
     3
 72
    11
 73
     7
 74
     0
 42
0.0000001
 43
0.0000001
 40
0.0
 40
0.0
 40
0.0
 40
0.0
 40
0.66826612566274
 40
0.66826612566274
 40
0.66826612566274
 40
0.77681478368835
 40
0.77681478368835
 40
0.77681478368835
 40
0.77681478368835
 10
93.1322906891505085
 20
48.1791599824719512
 30
0.0
 10
97.4682498171037111
 20
48.1726422677258057
 30
0.0
 10
107.3646607875947154
 20
49.3463505669972449
 30
0.0
 10
109.0880577529537021
 20
46.6923538103220679
 30
0.0
 10
109.2679947730287466
 20
46.6112597128891579
 30
0.0
 10
109.6322903319796893
 20
45.0291600703296879
 30
0.0
 10
109.6322903319797319
 20
43.9291666666668874
 30
0.0
  0
LINE
  5
80
100
AcDbEntity
  8
2022OUTLINE-OUTSIDE
  6
CONTINUOUS
100
AcDbLine
 10
109.63229
 20
43.929167
 30
0.0
 11
109.63229
 21
0.529167
 31
0.0
  0
LINE
  5
81
100
AcDbEntity
  8
2022OUTLINE-OUTSIDE
  6
CONTINUOUS
100
AcDbLine
 10
109.63229
 20
0.529167
 30
0.0
 11
97.63229
 21
0.529167
 31
0.0
  0
LINE
  5
82
100
AcDbEntity
  8
2022OUTLINE-OUTSIDE
  6
CONTINUOUS
100
AcDbLine
 10
97.63229
 20
0.529167
 30
0.0
 11
97.63229
 21
10.529167
 31
0.0
  0
LINE
  5
83
100
AcDbEntity
  8
2022OUTLINE-OUTSIDE
  6
CONTINUOUS
100
AcDbLine
 10
97.63229
 20
10.529167
 30
0.0
 11
96.132286
 21
10.529167
 31
0.0
  0
LINE
  5
84
100
AcDbEntity
  8
2022OUTLINE-OUTSIDE
  6
CONTINUOUS
100
AcDbLine
 10
96.132286
 20
10.529167
 30
0.0
 11
96.132286
 21
0.529167
 31
0.0
  0
LINE
  5
85
100
AcDbEntity
  8
2022OUTLINE-OUTSIDE
  6
CONTINUOUS
100
AcDbLine
 10
96.132286
 20
0.529167
 30
0.0
 11
23.132288
 21
0.529167
 31
0.0
  0
LINE
  5
86
100
AcDbEntity
  8
2022OUTLINE-OUTSIDE
  6
CONTINUOUS
100
AcDbLine
 10
23.132288
 20
0.529167
 30
0.0
 11
23.132288
 21
10.529167
 31
0.0
  0
LINE
  5
87
100
AcDbEntity
  8
2022OUTLINE-OUTSIDE
  6
CONTINUOUS
100
AcDbLine
 10
23.132288
 20
10.529167
 30
0.0
 11
21.63229
 21
10.529167
 31
0.0
  0
LINE
  5
88
100
AcDbEntity
  8
2022OUTLINE-OUTSIDE
  6
CONTINUOUS
100
AcDbLine
 10
21.63229
 20
10.529167
 30
0.0
 11
21.63229
 21
0.529167
 31
0.0
  0
LINE
  5
89
100
AcDbEntity
  8
2022OUTLINE-OUTSIDE
  6
CONTINUOUS
100
AcDbLine
 10
21.63229
 20
0.529167
 30
0.0
 11
9.63229
 21
0.529167
 31
0.0
  0
LINE
  5
8A
100
AcDbEntity
  8
2022OUTLINE-OUTSIDE
  6
CONTINUOUS
100
AcDbLine
 10
9.63229
 20
0.529167
 30
0.0
 11
9.63229
 21
44.72916
 31
0.0
  0
LINE
  5
8C
100
AcDbEntity
  8
2022OUTLINE-INSIDE
  6
CONTINUOUS
100
AcDbLine
 10
33.43229
 20
48.129167
 30
0.0
 11
35.03229
 21
48.129167
 31
0.0
  0
SPLINE
  5
8D
100
AcDbEntity
  8
2022OUTLINE-INSIDE
  6
CONTINUOUS
100
AcDbSpline
210
0.0
220
0.0
230
1.0
 70
     8
 71
     3
 72
    11
 73
     7
 74
     0
 42
0.0000001
 43
0.0000001
 40
0.0
 40
0.0
 40
0.0
 40
0.0
 40
0.204174906606224
 40
0.204174906606224
 40
0.204174906606224
 40
0.45546907373766
 40
0.45546907373766
 40
0.45546907373766
 40
0.45546907373766
 10
35.0322903319797447
 20
48.1291666666667055
 30
0.0
 10
34.3453655202839414
 20
49.3491349537106956
 30
0.0
 10
33.875922017168449
 20
50.7289322421718225
 30
0.0
 10
33.582290331979749
 20
52.2291666666667354
 30
0.0
 10
33.2208946492320791
 20
54.0756235426453529
 30
0.0
 10
33.1258216448202916
 20
56.1045206039189566
 30
0.0
 10
33.2322903319797405
 20
58.3291666666667368
 30
0.0
  0
LINE
  5
8E
100
AcDbEntity
  8
2022OUTLINE-INSIDE
  6
CONTINUOUS
100
AcDbLine
 10
33.23229
 20
58.329167
 30
0.0
 11
21.63229
 21
48.129167
 31
0.0
  0
LINE
  5
8F
100
AcDbEntity
  8
2022OUTLINE-INSIDE
  6
CONTINUOUS
100
AcDbLine
 10
21.63229
 20
48.129167
 30
0.0
 11
33.43229
 21
48.129167
 31
0.0
  0
ELLIPSE
  5
90
100
AcDbEntity
  8
2022OUTLINE-INSIDE
  6
CONTINUOUS
100
AcDbEllipse
 10
47.063835
 20
59.788374
 30
0.0
 11
-0.1474845062161016
 21
-14.0237970605936813
 31
0.0
210
0.0
220
0.0
230
1.0
 40
0.382813
 41
0.754228039096825
 42
1.5706003680545666
  0
ELLIPSE
  5
91
100
AcDbEntity
  8
2022OUTLINE-INSIDE
  6
CONTINUOUS
100
AcDbEllipse
 10
46.9386
 20
59.950714
 30
0.0
 11
-0.5713900513416121
 21
-14.3511583156458453
 31
0.0
210
0.0
220
0.0
230
1.0
 40
0.382813
 41
1.570600368054561
 42
2.3547706044565402
  0
ELLIPSE
  5
92
100
AcDbEntity
  8
2022OUTLINE-INSIDE
  6
CONTINUOUS
100
AcDbEllipse
 10
49.447865
 20
59.956029
 30
0.0
 11
2.5233153072128531
 21
-13.1555612637039392
 31
0.0
210
0.0
220
0.0
230
1.0
 40
0.382813
 41
2.3547706044564802
 42
3.1203108019308803
  0
ELLIPSE
  5
93
100
AcDbEntity
  8
2022OUTLINE-INSIDE
  6
CONTINUOUS
100
AcDbEllipse
 10
46.906596
 20
59.829589
 30
0.0
 11
-0.0173298260494678
 21
-13.3027310316493175
 31
0.0
210
0.0
220
0.0
230
1.0
 40
0.382813
 41
-3.1628745052487117
 42
-2.3873646144930887
  0
ELLIPSE
  5
94
100
AcDbEntity
  8
2022OUTLINE-INSIDE
  6
CONTINUOUS
100
AcDbEllipse
 10
47.304136
 20
59.973104
 30
0.0
 11
0.5283762337151908
 21
-13.3020821096015016
 31
0.0
210
0.0
220
0.0
230
1.0
 40
0.382813
 41
-2.3873646144929803
 42
-1.5375789156771229
  0
ELLIPSE
  5
95
100
AcDbEntity
  8
2022OUTLINE-INSIDE
  6
CONTINUOUS
100
AcDbEllipse
 10
46.991222
 20
59.745184
 30
0.0
 11
0.0075840853894103
 21
-12.4390157928914231
 31
0.0
210
0.0
220
0.0
230
1.0
 40
0.382813
 41
-1.537578915677114
 42
-0.6725095331251795
  0
ELLIPSE
  5
96
100
AcDbEntity
  8
2022OUTLINE-INSIDE
  6
CONTINUOUS
100
AcDbEllipse
 10
47.108992
 20
60.540342
 30
0.0
 11
0.1533630334227603
 21
-13.4110611332733001
 31
0.0
210
0.0
220
0.0
230
1.0
 40
0.382813
 41
-0.672509533125214
 42
-0.0058556480234739
  0
ELLIPSE
  5
97
100
AcDbEntity
  8
2022OUTLINE-INSIDE
  6
CONTINUOUS
100
AcDbEllipse
 10
49.261304
 20
57.929031
 30
0.0
 11
-2.0048284932135205
 21
-10.8045433747531803
 31
0.0
210
0.0
220
0.0
230
1.0
 40
0.382813
 41
-0.0058556480234691
 42
0.7542280390967248
  0
SPLINE
  5
98
100
AcDbEntity
  8
2022OUTLINE-INSIDE
  6
CONTINUOUS
100
AcDbSpline
210
0.0
220
0.0
230
1.0
 70
     8
 71
     3
 72
    11
 73
     7
 74
     0
 42
0.0000001
 43
0.0000001
 40
0.0
 40
0.0
 40
0.0
 40
0.0
 40
0.3533135366493652
 40
0.3533135366493652
 40
0.3533135366493652
 40
0.50559345755001
 40
0.50559345755001
 40
0.50559345755001
 40
0.50559345755001
 10
61.4322895784804999
 20
64.4291644705339763
 30
0.0
 10
61.8322895750477102
 20
61.729164493705504
 30
0.0
 10
61.8492886067489707
 20
58.8066372757183089
 30
0.0
 10
61.5442374992043639
 20
55.7121413488745318
 30
0.0
 10
61.4127589292970555
 20
54.3783979564304616
 30
0.0
 10
61.2214545996853374
 20
53.0127087350641375
 30
0.0
 10
60.8322895836297235
 20
52.0291645769507056
 30
0.0
  0
SPLINE
  5
99
100
AcDbEntity
  8
2022OUTLINE-INSIDE
  6
CONTINUOUS
100
AcDbSpline
210
0.0
220
0.0
230
1.0
 70
     8
 71
     3
 72
    32
 73
    28
 74
     0
 42
0.0000001
 43
0.0000001
 40
0.0
 40
0.0
 40
0.0
 40
0.0
 40
0.29850920428994
 40
0.29850920428994
 40
0.29850920428994
 40
0.60496015011497
 40
0.60496015011497
 40
0.60496015011497
 40
0.85776059353582
 40
0.85776059353582
 40
0.85776059353582
 40
0.93914576890282
 40
0.93914576890282
 40
0.93914576890282
 40
1.0706841433759999
 40
1.0706841433759999
 40
1.0706841433759999
 40
1.3269706605136999
 40
1.3269706605136999
 40
1.3269706605136999
 40
1.4652165724920001
 40
1.4652165724920001
 40
1.4652165724920001
 40
1.565314302732238
 40
1.565314302732238
 40
1.565314302732238
 40
1.8265435413691999
 40
1.8265435413691999
 40
1.8265435413691999
 40
1.8265435413691999
 10
60.8322895836297235
 20
52.0291645769507056
 30
0.0
 10
62.2322895716149063
 20
53.5291645640777602
 30
0.0
 10
63.5514885466143937
 20
55.195355276345289
 30
0.0
 10
65.188658225301964
 20
56.6894546502426451
 30
0.0
 10
66.8693842776301608
 20
58.2233040582585843
 30
0.0
 10
68.8852251131091435
 20
59.5757834505116506
 30
0.0
 10
71.1215242689306706
 20
61.4525076963363688
 30
0.0
 10
72.9663135440668498
 20
63.0006729997452837
 30
0.0
 10
74.9611266410214085
 20
64.9055915269799897
 30
0.0
 10
75.2868145723736433
 20
67.0323694766155569
 30
0.0
 10
75.3916647421334147
 20
67.7170525968489017
 30
0.0
 10
75.3235237762984013
 20
68.4247296268347185
 30
0.0
 10
75.2080195271981466
 20
69.053038887989203
 30
0.0
 10
75.0213363738734529
 20
70.0685405257999179
 30
0.0
 10
74.7109285988919396
 20
70.876713902277487
 30
0.0
 10
74.1883068716986145
 20
71.4971183868667453
 30
0.0
 10
73.1700420286114621
 20
72.7059010345830501
 30
0.0
 10
71.3461752319091289
 20
73.2018795308437547
 30
0.0
 10
69.4775584469132639
 20
72.9762301103276627
 30
0.0
 10
68.4695903553225662
 20
72.8545104417511595
 30
0.0
 10
67.4486012138307984
 20
72.5228163469750911
 30
0.0
 10
66.7254129804872633
 20
71.585608321720926
 30
0.0
 10
66.2017844719965467
 20
70.90701757897547
 30
0.0
 10
65.8342800397528833
 20
69.9109821929666992
 30
0.0
 10
65.5038967577202982
 20
68.9619918615775447
 30
0.0
 10
64.6416816703590484
 20
66.4853720506422832
 30
0.0
 10
64.0322895561672851
 20
64.3291644713920903
 30
0.0
 10
61.4322895784804999
 20
64.4291644705339621
 30
0.0
  0
SPLINE
  5
9A
100
AcDbEntity
  8
2022OUTLINE-INSIDE
  6
CONTINUOUS
100
AcDbSpline
210
0.0
220
0.0
230
1.0
 70
     8
 71
     3
 72
    11
 73
     7
 74
     0
 42
0.0000001
 43
0.0000001
 40
0.0
 40
0.0
 40
0.0
 40
0.0
 40
0.3812452836992024
 40
0.3812452836992024
 40
0.3812452836992024
 40
0.5300925953384
 40
0.5300925953384
 40
0.5300925953384
 40
0.5300925953384
 10
68.4322903319797717
 20
48.3291666666667226
 30
0.0
 10
71.696408411269644
 20
48.7327211132395064
 30
0.0
 10
75.5869035234905482
 20
48.5138308114401653
 30
0.0
 10
78.2344366604457662
 20
48.5045047946039531
 30
0.0
 10
79.2680971587154346
 20
48.5008636937334074
 30
0.0
 10
80.1122918370802921
 20
48.5291666666667325
 30
0.0
 10
81.8322918613924202
 20
47.9291700505983442
 30
0.0
  0
SPLINE
  5
9B
100
AcDbEntity
  8
2022OUTLINE-INSIDE
  6
CONTINUOUS
100
AcDbSpline
210
0.0
220
0.0
230
1.0
 70
     8
 71
     3
 72
    41
 73
    37
 74
     0
 42
0.0000001
 43
0.0000001
 40
0.0
 40
0.0
 40
0.0
 40
0.0
 40
0.15773519579731
 40
0.15773519579731
 40
0.15773519579731
 40
0.49231766973747
 40
0.49231766973747
 40
0.49231766973747
 40
0.72210738011644
 40
0.72210738011644
 40
0.72210738011644
 40
0.9151336256014601
 40
0.9151336256014601
 40
0.9151336256014601
 40
1.0744290985973
 40
1.0744290985973
 40
1.0744290985973
 40
1.2144261820239
 40
1.2144261820239
 40
1.2144261820239
 40
1.3122479420916999
 40
1.3122479420916999
 40
1.3122479420916999
 40
1.4488152671051
 40
1.4488152671051
 40
1.4488152671051
 40
1.5961895913657
 40
1.5961895913657
 40
1.5961895913657
 40
1.7239188052304999
 40
1.7239188052304999
 40
1.7239188052304999
 40
1.907491507644792
 40
1.907491507644792
 40
1.907491507644792
 40
2.1431400236383
 40
2.1431400236383
 40
2.1431400236383
 40
2.1431400236383
 10
81.8322918613924202
 20
47.9291700505983442
 30
0.0
 10
82.6822918734071663
 20
49.6491700749106712
 30
0.0
 10
83.1870268772280923
 20
50.3006777650440213
 30
0.0
 10
83.870604625276826
 20
51.0672576173866375
 30
0.0
 10
85.3205862410887192
 20
52.6933004429780638
 30
0.0
 10
87.5752428091474684
 20
54.837092462312242
 30
0.0
 10
89.589970705558386
 20
56.6595147998524311
 30
0.0
 10
90.9736765953399811
 20
57.9111461127538618
 30
0.0
 10
92.2442110224321254
 20
59.0111912200431377
 30
0.0
 10
93.5982365725185872
 20
60.0098095829762528
 30
0.0
 10
94.735635056519186
 20
60.8486615618202151
 30
0.0
 10
95.9319466402390759
 20
61.6159446877110994
 30
0.0
 10
97.0241846041659812
 20
62.8382344509397868
 30
0.0
 10
97.9255571747745392
 20
63.8469326488570985
 30
0.0
 10
98.7560511992165289
 20
65.1655096519393737
 30
0.0
 10
99.2533891848873822
 20
66.3247881126448533
 30
0.0
 10
99.6904754759271867
 20
67.3436218580475412
 30
0.0
 10
99.8702386530620316
 20
68.2394165701008575
 30
0.0
 10
99.688322153886503
 20
69.2230563022939407
 30
0.0
 10
99.5612095619727597
 20
69.9103661199030597
 30
0.0
 10
99.2575106425815648
 20
70.6405653518467886
 30
0.0
 10
98.7594751593266409
 20
71.2460506518944925
 30
0.0
 10
98.0641761413704529
 20
72.0913585640107186
 30
0.0
 10
96.9901057227631469
 20
72.6935929663056442
 30
0.0
 10
95.8246972021877639
 20
72.8386446341306879
 30
0.0
 10
94.567066263085124
 20
72.9951746937660317
 30
0.0
 10
93.2030695191716205
 20
72.6193025198345055
 30
0.0
 10
92.1386675100975623
 20
71.8258912307324948
 30
0.0
 10
91.2161511047654301
 20
71.1382422746683574
 30
0.0
 10
90.5186805457625212
 20
70.1369514797400342
 30
0.0
 10
90.16608788961058
 20
69.2900641731516629
 30
0.0
 10
89.659340961615257
 20
68.0729159045077523
 30
0.0
 10
89.8649566053896507
 20
67.1746957699508016
 30
0.0
 10
89.2333702000885012
 20
66.1439298348506242
 30
0.0
 10
88.4226156751864067
 20
64.8207567282367734
 30
0.0
 10
86.2322919235866152
 20
63.2791702675713523
 30
0.0
 10
84.0322903319797092
 20
64.5291666666667396
 30
0.0
  0
SPLINE
  5
9C
100
AcDbEntity
  8
2022OUTLINE-INSIDE
  6
CONTINUOUS
100
AcDbSpline
210
0.0
220
0.0
230
1.0
 70
     8
 71
     3
 72
    14
 73
    10
 74
     0
 42
0.0000001
 43
0.0000001
 40
0.0
 40
0.0
 40
0.0
 40
0.0
 40
0.74451714184977
 40
0.74451714184977
 40
0.74451714184977
 40
0.8795426550096282
 40
0.8795426550096282
 40
0.8795426550096282
 40
0.97605531981143
 40
0.97605531981143
 40
0.97605531981143
 40
0.97605531981143
 10
84.0322903319797092
 20
64.5291666666667396
 30
0.0
 10
83.008473880022791
 20
61.2330733486287215
 30
0.0
 10
79.241803543341419
 20
57.0930852753623483
 30
0.0
 10
75.2913413213043015
 20
54.0041578941952665
 30
0.0
 10
74.5748861065540893
 20
53.443950504316561
 30
0.0
 10
73.8523857206284617
 20
52.9183139649798946
 30
0.0
 10
72.2406517742844869
 20
51.579167064034074
 30
0.0
 10
71.0886269867243925
 20
50.6219802854262397
 30
0.0
 10
69.4822916868245386
 20
49.2491700692566496
 30
0.0
 10
68.4322903319797717
 20
48.3291666666667226
 30
0.0
  0
MTEXT
  5
9D
100
AcDbEntity
  8
LETTER2022BOLD
100
AcDbMText
 10
23.882289
 20
57.029157
 30
0.0
 40
38.524757
 41
46.5
 71
     5
 72
     5
  1
\C7;\fArial Rounded MT Bold|b0|i0|;\H38.524756759778;2
  0
MTEXT
  5
9E
100
AcDbEntity
  8
LETTER2022BOLD
100
AcDbMText
 10
47.382289
 20
57.029157
 30
0.0
 40
38.524757
 41
46.5
 71
     5
 72
     5
  1
\C7;\fArial Rounded MT Bold|b0|i0|;\H38.524756759778;0
  0
MTEXT
  5
9F
100
AcDbEntity
  8
LETTER2022BOLD
100
AcDbMText
 10
70.382289
 20
57.029157
 30
0.0
 40
38.524757
 41
46.5
 71
     5
 72
     5
  1
\C7;\fArial Rounded MT Bold|b0|i0|;\H38.524756759778;2
  0
MTEXT
  5
A0
100
AcDbEntity
  8
LETTER2022BOLD
100
AcDbMText
 10
94.882291
 20
57.029157
 30
0.0
 40
38.524757
 41
46.5
 71
     5
 72
     5
  1
\C7;\fArial Rounded MT Bold|b0|i0|;\H38.524756759778;2
  0
ENDSEC
  0
SECTION
  2
OBJECTS
  0
DICTIONARY
  5
C
100
AcDbDictionary
  3
ACAD_GROUP
350
D
  3
ACAD_MLINESTYLE
350
1B
  3
ACAD_SCALELIST
350
2C
  3
ACAD_VISUALSTYLE
350
51
  3
ACAD_MATERIAL
350
6A
  3
ACAD_TABLESTYLE
350
6E
  3
ACAD_MLEADERSTYLE
350
70
  0
DICTIONARY
  5
D
102
{ACAD_REACTORS
330
C
102
}
100
AcDbDictionary
  0
DICTIONARY
  5
1B
102
{ACAD_REACTORS
330
C
102
}
100
AcDbDictionary
  3
STANDARD
350
1C
  0
MLINESTYLE
  5
1C
102
{ACAD_REACTORS
330
1B
102
}
100
AcDbMlineStyle
  2
STANDARD
 70
     0
  3

 62
   256
 51
90.0
 52
90.0
 71
     2
 49
0.5
 62
   256
  6
BYLAYER
 49
-0.5
 62
   256
  6
BYLAYER
  0
DICTIONARY
  5
29
102
{ACAD_REACTORS
330
C
102
}
100
AcDbDictionary
  0
DICTIONARY
  5
2C
102
{ACAD_REACTORS
330
C
102
}
100
AcDbDictionary
  3
A0
350
2D
  3
A1
350
2E
  3
A2
350
2F
  3
A3
350
30
  3
A4
350
31
  3
A5
350
32
  3
A6
350
33
  3
A7
350
34
  3
A8
350
35
  3
A9
350
36
  3
B0
350
37
  3
B1
350
38
  3
B2
350
39
  3
B3
350
3A
  3
B4
350
3B
  3
B5
350
3C
  3
B6
350
3D
  3
B7
350
3E
  3
B8
350
3F
  3
B9
350
40
  3
C0
350
41
  3
C1
350
42
  3
C2
350
43
  3
C3
350
44
  3
C4
350
45
  3
C5
350
46
  3
C6
350
47
  3
C7
350
48
  3
C8
350
49
  3
C9
350
4A
  3
D0
350
4B
  3
D1
350
4C
  3
D2
350
4D
  0
DICTIONARY
  5
4E
102
{ACAD_REACTORS
330
C
102
}
100
AcDbDictionary
  3
MODEL
350
4F
  3
LAYOUT1
350
50
  0
DICTIONARY
  5
51
102
{ACAD_REACTORS
330
C
102
}
100
AcDbDictionary
  3
FLAT
350
52
  3
FLATWITHEDGES
350
53
  3
GOURAUD
350
54
  3
GOURAUDWITHEDGES
350
55
  3
2DWIREFRAME
350
56
  3
WIREFRAME
350
57
  3
HIDDEN
350
58
  3
BASIC
350
59
  3
REALISTIC
350
5A
  3
CONCEPTUAL
350
5B
  3
DIM
350
5C
  3
BRIGHTEN
350
5D
  3
THICKEN
350
5E
  3
LINEPATTERN
350
5F
  3
FACEPATTERN
350
60
  3
COLORCHANGE
350
61
  3
JITTEROFF
350
62
  3
OVERHANGOFF
350
63
  3
EDGECOLOROFF
350
64
  3
SHADES OF GRAY
350
65
  3
SKETCHY
350
66
  3
X-RAY
350
67
  3
SHADED WITH EDGES
350
68
  3
SHADED
350
69
  0
DICTIONARY
  5
6A
102
{ACAD_REACTORS
330
C
102
}
100
AcDbDictionary
  3
BYLAYER
350
6B
  3
BYBLOCK
350
6C
  3
GLOBAL
350
6D
  0
DICTIONARY
  5
6E
102
{ACAD_REACTORS
330
C
102
}
100
AcDbDictionary
  3
STANDARD
350
6F
  0
DICTIONARY
  5
70
102
{ACAD_REACTORS
330
C
102
}
100
AcDbDictionary
  3
STANDARD
350
71
  0
ENDSEC
  0
EOF
