  0
SECTION
  2
HEADER
  9
$ACADVER
  1
AC1014
  9
$ACADMAINTVER
 70
     0
  9
$DWGCODEPAGE
  3
ANSI_1252
  9
$INSBASE
 10
0.0
 20
0.0
 30
0.0
  9
$EXTMIN
 10
0.0
 20
0.0
 30
0.0
  9
$EXTMAX
 10
210.0
 20
297.0
 30
0.0
  9
$LIMMIN
 10
0.0
 20
0.0
  9
$LIMMAX
 10
12.0
 20
9.0
  9
$ORTHOMODE
 70
     0
  9
$REGENMODE
 70
     1
  9
$FILLMODE
 70
     0
  9
$QTEXTMODE
 70
     0
  9
$MIRRTEXT
 70
     1
  9
$DRAGMODE
 70
     2
  9
$LTSCALE
 40
1.0
  9
$OSMODE
 70
    37
  9
$ATTMODE
 70
     1
  9
$TEXTSIZE
 40
0.2
  9
$TRACEWID
 40
0.05
  9
$TEXTSTYLE
  7
STANDARD
  9
$CLAYER
  8
0
  9
$CELTYPE
  6
BYLAYER
  9
$CECOLOR
 62
   256
  9
$CELTSCALE
 40
1.0
  9
$DELOBJ
 70
     1
  9
$DISPSILH
 70
     0
  9
$DIMSCALE
 40
1.0
  9
$DIMASZ
 40
0.18
  9
$DIMEXO
 40
0.0625
  9
$DIMDLI
 40
0.38
  9
$DIMRND
 40
0.0
  9
$DIMDLE
 40
0.0
  9
$DIMEXE
 40
0.18
  9
$DIMTP
 40
0.0
  9
$DIMTM
 40
0.0
  9
$DIMTXT
 40
0.18
  9
$DIMCEN
 40
0.09
  9
$DIMTSZ
 40
0.0
  9
$DIMTOL
 70
     0
  9
$DIMLIM
 70
     0
  9
$DIMTIH
 70
     0
  9
$DIMTOH
 70
     0
  9
$DIMSE1
 70
     0
  9
$DIMSE2
 70
     0
  9
$DIMTAD
 70
     1
  9
$DIMZIN
 70
     0
  9
$DIMBLK
  1

  9
$DIMASO
 70
     1
  9
$DIMSHO
 70
     1
  9
$DIMPOST
  1

  9
$DIMAPOST
  1

  9
$DIMALT
 70
     0
  9
$DIMALTD
 70
     2
  9
$DIMALTF
 40
25.4
  9
$DIMLFAC
 40
1.0
  9
$DIMTOFL
 70
     0
  9
$DIMTVP
 40
0.0
  9
$DIMTIX
 70
     0
  9
$DIMSOXD
 70
     0
  9
$DIMSAH
 70
     0
  9
$DIMBLK1
  1

  9
$DIMBLK2
  1

  9
$DIMSTYLE
  2
STANDARD
  9
$DIMCLRD
 70
     0
  9
$DIMCLRE
 70
     0
  9
$DIMCLRT
 70
     0
  9
$DIMTFAC
 40
1.0
  9
$DIMGAP
 40
0.09
  9
$DIMJUST
 70
     0
  9
$DIMSD1
 70
     0
  9
$DIMSD2
 70
     0
  9
$DIMTOLJ
 70
     1
  9
$DIMTZIN
 70
     0
  9
$DIMALTZ
 70
     0
  9
$DIMALTTZ
 70
     0
  9
$DIMFIT
 70
     5
  9
$DIMUPT
 70
     0
  9
$DIMUNIT
 70
     2
  9
$DIMDEC
 70
     2
  9
$DIMTDEC
 70
     4
  9
$DIMALTU
 70
     2
  9
$DIMALTTD
 70
     2
  9
$DIMTXSTY
  7
STANDARD
  9
$DIMAUNIT
 70
     0
  9
$LUNITS
 70
     2
  9
$LUPREC
 70
     4
  9
$SKETCHINC
 40
0.1
  9
$FILLETRAD
 40
0.5
  9
$AUNITS
 70
     0
  9
$AUPREC
 70
     0
  9
$MENU
  1
.
  9
$ELEVATION
 40
0.0
  9
$PELEVATION
 40
0.0
  9
$THICKNESS
 40
0.0
  9
$LIMCHECK
 70
     0
  9
$BLIPMODE
 70
     0
  9
$CHAMFERA
 40
0.5
  9
$CHAMFERB
 40
0.5
  9
$CHAMFERC
 40
1.0
  9
$CHAMFERD
 40
0.0
  9
$SKPOLY
 70
     0
  9
$TDCREATE
 40
2450772.666465926
  9
$TDUPDATE
 40
2459602.647673599
  9
$TDINDWG
 40
0.0011564931
  9
$TDUSRTIMER
 40
0.0011564931
  9
$USRTIMER
 70
     1
  9
$ANGBASE
 50
0.0
  9
$ANGDIR
 70
     0
  9
$PDMODE
 70
     0
  9
$PDSIZE
 40
0.0
  9
$PLINEWID
 40
0.0
  9
$COORDS
 70
     1
  9
$SPLFRAME
 70
     0
  9
$SPLINETYPE
 70
     6
  9
$SPLINESEGS
 70
     8
  9
$ATTDIA
 70
     0
  9
$ATTREQ
 70
     1
  9
$HANDLING
 70
     1
  9
$HANDSEED
  5
A9
  9
$SURFTAB1
 70
     6
  9
$SURFTAB2
 70
     6
  9
$SURFTYPE
 70
     6
  9
$SURFU
 70
     6
  9
$SURFV
 70
     6
  9
$UCSNAME
  2

  9
$UCSORG
 10
0.0
 20
0.0
 30
0.0
  9
$UCSXDIR
 10
1.0
 20
0.0
 30
0.0
  9
$UCSYDIR
 10
0.0
 20
1.0
 30
0.0
  9
$PUCSNAME
  2

  9
$PUCSORG
 10
0.0
 20
0.0
 30
0.0
  9
$PUCSXDIR
 10
1.0
 20
0.0
 30
0.0
  9
$PUCSYDIR
 10
0.0
 20
1.0
 30
0.0
  9
$USERI1
 70
     0
  9
$USERI2
 70
     0
  9
$USERI3
 70
     0
  9
$USERI4
 70
     0
  9
$USERI5
 70
     0
  9
$USERR1
 40
0.0
  9
$USERR2
 40
0.0
  9
$USERR3
 40
0.0
  9
$USERR4
 40
0.0
  9
$USERR5
 40
0.0
  9
$WORLDVIEW
 70
     1
  9
$SHADEDGE
 70
     3
  9
$SHADEDIF
 70
    70
  9
$TILEMODE
 70
     1
  9
$MAXACTVP
 70
    48
  9
$PINSBASE
 10
0.0
 20
0.0
 30
0.0
  9
$PLIMCHECK
 70
     0
  9
$PEXTMIN
 10
0.0
 20
0.0
 30
0.0
  9
$PEXTMAX
 10
0.0
 20
0.0
 30
0.0
  9
$PLIMMIN
 10
0.0
 20
0.0
  9
$PLIMMAX
 10
12.0
 20
9.0
  9
$UNITMODE
 70
     0
  9
$VISRETAIN
 70
     1
  9
$PLINEGEN
 70
     0
  9
$PSLTSCALE
 70
     1
  9
$TREEDEPTH
 70
  3020
  9
$PICKSTYLE
 70
     1
  9
$CMLSTYLE
  2
STANDARD
  9
$CMLJUST
 70
     0
  9
$CMLSCALE
 40
1.0
  9
$PROXYGRAPHICS
 70
     1
  9
$MEASUREMENT
 70
     0
  0
ENDSEC
  0
SECTION
  2
CLASSES
  0
CLASS
  1
LWPOLYLINE
  2
AcDbPolyline
  3
ObjectDBX Classes
 90
       20
280
     0
281
     1
  0
CLASS
  1
IMAGE
  2
AcDbRasterImage
  3
ISM
 90
       21
280
     0
281
     1
  0
CLASS
  1
OLE2FRAME
  2
AcDbOle2Frame
  3
ObjectDBX Classes
 90
       21
280
     0
281
     1
  0
CLASS
  1
HATCH
  2
AcDbHatch
  3
ObjectDBX Classes
 90
       20
280
     0
281
     1
  0
CLASS
  1
DICTIONARYVAR
  2
AcDbDictionaryVar
  3
ObjectDBX Classes
 90
       20
280
     0
281
     0
  0
CLASS
  1
RASTERVARIABLES
  2
AcDbRasterVariables
  3
ISM
 90
       21
280
     0
281
     0
  0
CLASS
  1
IMAGEDEF
  2
AcDbRasterImageDef
  3
ISM
 90
       21
280
     0
281
     0
  0
CLASS
  1
IMAGEDEF_REACTOR
  2
AcDbRasterImageDefReactor
  3
ISM
 90
       21
280
     0
281
     0
  0
CLASS
  1
IDBUFFER
  2
AcDbIdBuffer
  3
ObjectDBX Classes
 90
       20
280
     0
281
     0
  0
CLASS
  1
SPATIAL_FILTER
  2
AcDbSpatialFilter
  3
ObjectDBX Classes
 90
       20
280
     0
281
     0
  0
CLASS
  1
XRECORD
  2
AcDbXrecord
  3
ObjectDBX Classes
 90
       21
280
     0
281
     0
  0
CLASS
  1
ACDBDICTIONARYWDFLT
  2
AcDbDictionaryWithDefault
  3
ObjectDBX Classes
 90
       22
280
     0
281
     0
  0
CLASS
  1
SCALE
  2
AcDbScale
  3
ObjectDBX Classes
 90
       27
280
     0
281
     0
  0
CLASS
  1
VISUALSTYLE
  2
AcDbVisualStyle
  3
ObjectDBX Classes
 90
       26
280
     0
281
     0
  0
CLASS
  1
MATERIAL
  2
AcDbMaterial
  3
ObjectDBX Classes
 90
       23
280
     0
281
     0
  0
CLASS
  1
TABLESTYLE
  2
AcDbTableStyle
  3
ObjectDBX Classes
 90
       25
280
     0
281
     0
  0
CLASS
  1
MLEADERSTYLE
  2
AcDbMLeaderStyle
  3
ACDB_MLEADERSTYLE_CLASS
 90
       27
280
     0
281
     0
  0
CLASS
  1
SORTENTSTABLE
  2
AcDbSortentsTable
  3
"AutoCAD"
 90
        0
280
     0
281
     0
  0
CLASS
  1
LAYER_INDEX
  2
AcDbLayerIndex
  3
"Acad"
 90
        0
280
     0
281
     0
  0
CLASS
  1
SPATIAL_INDEX
  2
AcDbSpatialIndex
  3
"Acad"
 90
        0
280
     0
281
     0
  0
CLASS
  1
OBJECT_PTR
  2
CAseDLPNTableRecord
  3
"ASE-LPNTableRecord"
 90
        1
280
     0
281
     0
  0
CLASS
  1
LAYOUT
  2
AcDbLayout
  3
"AutoCAD 2000"
 90
        1
280
     0
281
     0
  0
CLASS
  1
PLOTSETTINGS
  2
AcDbPlotsettings
  3
"AutoCAD 2000"
 90
        1
280
     0
281
     0
  0
CLASS
  1
ACDBPLACEHOLDER
  2
AcDbPlaceholder
  3
"AutoCAD 2000"
 90
        1
280
     0
281
     0
  0
CLASS
  1
VBA_PROJECT
  2
AcDbVbaProject
  3
"AutoCAD 2000"
 90
        1
280
     0
281
     0
  0
CLASS
  1
WIPEOUT
  2
AcDbWipeout
  3
"AutoCAD 2000"
 90
        1
280
     0
281
     1
  0
CLASS
  1
WIPEOUTVARIABLES
  2
AcDbWipeoutVariables
  3
"AutoCAD 2000"
 90
        1
280
     0
281
     0
  0
CLASS
  1
RTEXT
  2
RText
  3
RText|AutoCAD Express Tool|expresstools@autodesk.com
 90
        1
280
     0
281
     1
  0
CLASS
  1
ARCALIGNEDTEXT
  2
AcDbArcAlignedText
  3
RText|AutoCAD Express Tool|expresstools@autodesk.com
 90
        1
280
     0
281
     1
  0
ENDSEC
  0
SECTION
  2
TABLES
  0
TABLE
  2
VPORT
  5
8
100
AcDbSymbolTable
 70
     1
  0
VPORT
  5
25
100
AcDbSymbolTableRecord
100
AcDbViewportTableRecord
  2
*ACTIVE
 70
     0
 10
0.0
 20
0.0
 11
1.0
 21
1.0
 12
105.0
 22
148.5
 13
0.0
 23
0.0
 14
0.5
 24
0.5
 15
0.5
 25
0.5
 16
0.0
 26
0.0
 36
1.0
 17
0.0
 27
0.0
 37
0.0
 40
297.0
 41
0.707071
 42
50.0
 43
0.0
 44
0.0
 50
0.0
 51
0.0
 71
     0
 72
   100
 73
     1
 74
     1
 75
     0
 76
     0
 77
     0
 78
     0
  0
ENDTAB
  0
TABLE
  2
LTYPE
  5
5
100
AcDbSymbolTable
 70
     3
  0
LTYPE
  5
12
100
AcDbSymbolTableRecord
100
AcDbLinetypeTableRecord
  2
BYBLOCK
 70
     0
  3

 72
    65
 73
     0
 40
0.0
  0
LTYPE
  5
13
100
AcDbSymbolTableRecord
100
AcDbLinetypeTableRecord
  2
BYLAYER
 70
     0
  3

 72
    65
 73
     0
 40
0.0
  0
LTYPE
  5
14
100
AcDbSymbolTableRecord
100
AcDbLinetypeTableRecord
  2
CONTINUOUS
 70
     0
  3
Solid line
 72
    65
 73
     0
 40
0.0
  0
ENDTAB
  0
TABLE
  2
LAYER
  5
2
100
AcDbSymbolTable
 70
     5
  0
LAYER
  5
E
100
AcDbSymbolTableRecord
100
AcDbLayerTableRecord
  2
0
 70
     0
 62
     7
  6
CONTINUOUS
  0
LAYER
  5
74
100
AcDbSymbolTableRecord
100
AcDbLayerTableRecord
  2
LETTER2022BOLD
 70
     0
 62
    -7
  6
CONTINUOUS
  0
LAYER
  5
79
100
AcDbSymbolTableRecord
100
AcDbLayerTableRecord
  2
2022OUTLINE-INSIDE
 70
     0
 62
     7
  6
CONTINUOUS
  0
LAYER
  5
8B
100
AcDbSymbolTableRecord
100
AcDbLayerTableRecord
  2
LETTER2022PLAIN
 70
     0
 62
    -7
  6
CONTINUOUS
  0
LAYER
  5
90
100
AcDbSymbolTableRecord
100
AcDbLayerTableRecord
  2
FEETOUTLINE
 70
     0
 62
     7
  6
CONTINUOUS
  0
ENDTAB
  0
TABLE
  2
STYLE
  5
3
100
AcDbSymbolTable
 70
     1
  0
STYLE
  5
F
100
AcDbSymbolTableRecord
100
AcDbTextStyleTableRecord
  2
STANDARD
 70
     0
 40
0.0
 41
1.0
 50
0.0
 71
     0
 42
0.2
  3
txt.shx
  4

  0
ENDTAB
  0
TABLE
  2
VIEW
  5
6
100
AcDbSymbolTable
 70
     0
  0
ENDTAB
  0
TABLE
  2
UCS
  5
7
100
AcDbSymbolTable
 70
     0
  0
ENDTAB
  0
TABLE
  2
APPID
  5
9
100
AcDbSymbolTable
 70
     1
  0
APPID
  5
10
100
AcDbSymbolTableRecord
100
AcDbRegAppTableRecord
  2
ACAD
 70
     0
  0
ENDTAB
  0
TABLE
  2
DIMSTYLE
  5
A
100
AcDbSymbolTable
 70
     1
  0
DIMSTYLE
105
1D
100
AcDbSymbolTableRecord
100
AcDbDimStyleTableRecord
  2
STANDARD
 70
     0
  3

  4

  5

  6

  7

 40
1.0
 41
0.18
 42
0.0625
 43
0.38
 44
0.18
 45
0.0
 46
0.0
 47
0.0
 48
0.0
 71
     0
 72
     0
 73
     1
 74
     1
 75
     0
 76
     0
 77
     0
 78
     0
140
0.18
141
0.09
142
0.0
143
25.4
144
1.0
145
0.0
146
1.0
147
0.09
170
     0
171
     2
172
     0
173
     0
174
     0
175
     0
176
     0
177
     0
178
     0
270
     2
271
     4
272
     4
273
     2
274
     2
275
     0
280
     0
281
     0
282
     0
283
     1
284
     0
285
     0
286
     0
287
     3
288
     0
340
F
  0
ENDTAB
  0
TABLE
  2
BLOCK_RECORD
  5
1
100
AcDbSymbolTable
 70
     0
  0
BLOCK_RECORD
  5
18
100
AcDbSymbolTableRecord
100
AcDbBlockTableRecord
  2
*MODEL_SPACE
  0
BLOCK_RECORD
  5
15
100
AcDbSymbolTableRecord
100
AcDbBlockTableRecord
  2
*PAPER_SPACE
  0
ENDTAB
  0
ENDSEC
  0
SECTION
  2
BLOCKS
  0
BLOCK
  5
19
100
AcDbEntity
  8
0
100
AcDbBlockBegin
  2
*MODEL_SPACE
 70
     0
 10
0.0
 20
0.0
 30
0.0
  3
*MODEL_SPACE
  1

  0
ENDBLK
  5
1A
100
AcDbEntity
  8
0
100
AcDbBlockEnd
  0
BLOCK
  5
16
100
AcDbEntity
 67
     1
  8
0
100
AcDbBlockBegin
  2
*PAPER_SPACE
 70
     0
 10
0.0
 20
0.0
 30
0.0
  3
*PAPER_SPACE
  1

  0
ENDBLK
  5
17
100
AcDbEntity
 67
     1
  8
0
100
AcDbBlockEnd
  0
ENDSEC
  0
SECTION
  2
ENTITIES
  0
MTEXT
  5
75
100
AcDbEntity
  8
LETTER2022BOLD
100
AcDbMText
 10
23.382292
 20
76.176392
 30
0.0
 40
38.524757
 41
46.5
 71
     5
 72
     5
  1
\C140;\fArial Rounded MT Bold|b1|i0|;\H38.524756759778;2
  0
MTEXT
  5
76
100
AcDbEntity
  8
LETTER2022BOLD
100
AcDbMText
 10
46.882291
 20
76.176392
 30
0.0
 40
38.524757
 41
46.5
 71
     5
 72
     5
  1
\C140;\fArial Rounded MT Bold|b1|i0|;\H38.524756759778;0
  0
MTEXT
  5
77
100
AcDbEntity
  8
LETTER2022BOLD
100
AcDbMText
 10
69.882292
 20
76.176392
 30
0.0
 40
38.524757
 41
46.5
 71
     5
 72
     5
  1
\C140;\fArial Rounded MT Bold|b1|i0|;\H38.524756759778;2
  0
MTEXT
  5
78
100
AcDbEntity
  8
LETTER2022BOLD
100
AcDbMText
 10
94.382293
 20
76.176392
 30
0.0
 40
38.524757
 41
46.5
 71
     5
 72
     5
  1
\C140;\fArial Rounded MT Bold|b1|i0|;\H38.524756759778;2
  0
LINE
  5
7A
100
AcDbEntity
  8
2022OUTLINE-INSIDE
  6
CONTINUOUS
100
AcDbLine
 10
33.43229
 20
67.776386
 30
0.0
 11
35.03229
 21
67.776386
 31
0.0
  0
SPLINE
  5
7B
100
AcDbEntity
  8
2022OUTLINE-INSIDE
  6
CONTINUOUS
100
AcDbSpline
210
0.0
220
0.0
230
1.0
 70
     8
 71
     3
 72
    11
 73
     7
 74
     0
 42
0.0000001
 43
0.0000001
 40
0.0
 40
0.0
 40
0.0
 40
0.0
 40
0.204174906606224
 40
0.204174906606224
 40
0.204174906606224
 40
0.45546907373766
 40
0.45546907373766
 40
0.45546907373766
 40
0.45546907373766
 10
35.0322903319797447
 20
67.7763863413993874
 30
0.0
 10
34.3453655202839414
 20
68.9963546284433846
 30
0.0
 10
33.875922017168449
 20
70.3761519169045187
 30
0.0
 10
33.582290331979749
 20
71.8763863413994244
 30
0.0
 10
33.2208946492320791
 20
73.7228432173780419
 30
0.0
 10
33.1258216448202916
 20
75.7517402786516385
 30
0.0
 10
33.2322903319797405
 20
77.9763863413994187
 30
0.0
  0
LINE
  5
7C
100
AcDbEntity
  8
2022OUTLINE-INSIDE
  6
CONTINUOUS
100
AcDbLine
 10
33.23229
 20
77.976386
 30
0.0
 11
21.63229
 21
67.776386
 31
0.0
  0
LINE
  5
7D
100
AcDbEntity
  8
2022OUTLINE-INSIDE
  6
CONTINUOUS
100
AcDbLine
 10
21.63229
 20
67.776386
 30
0.0
 11
33.43229
 21
67.776386
 31
0.0
  0
ELLIPSE
  5
7E
100
AcDbEntity
  8
2022OUTLINE-INSIDE
  6
CONTINUOUS
100
AcDbEllipse
 10
47.063835
 20
79.435593
 30
0.0
 11
-0.1474845062161016
 21
-14.0237970605936813
 31
0.0
210
0.0
220
0.0
230
1.0
 40
0.382813
 41
0.754228039096825
 42
1.5706003680545666
  0
ELLIPSE
  5
7F
100
AcDbEntity
  8
2022OUTLINE-INSIDE
  6
CONTINUOUS
100
AcDbEllipse
 10
46.9386
 20
79.597934
 30
0.0
 11
-0.5713900513416121
 21
-14.3511583156458453
 31
0.0
210
0.0
220
0.0
230
1.0
 40
0.382813
 41
1.570600368054561
 42
2.3547706044565402
  0
ELLIPSE
  5
80
100
AcDbEntity
  8
2022OUTLINE-INSIDE
  6
CONTINUOUS
100
AcDbEllipse
 10
49.447865
 20
79.603248
 30
0.0
 11
2.5233153072128531
 21
-13.1555612637039392
 31
0.0
210
0.0
220
0.0
230
1.0
 40
0.382813
 41
2.3547706044564802
 42
3.1203108019308803
  0
ELLIPSE
  5
81
100
AcDbEntity
  8
2022OUTLINE-INSIDE
  6
CONTINUOUS
100
AcDbEllipse
 10
46.906596
 20
79.476809
 30
0.0
 11
-0.0173298260494678
 21
-13.3027310316493175
 31
0.0
210
0.0
220
0.0
230
1.0
 40
0.382813
 41
-3.1628745052487117
 42
-2.3873646144930887
  0
ELLIPSE
  5
82
100
AcDbEntity
  8
2022OUTLINE-INSIDE
  6
CONTINUOUS
100
AcDbEllipse
 10
47.304136
 20
79.620323
 30
0.0
 11
0.5283762337151908
 21
-13.3020821096015016
 31
0.0
210
0.0
220
0.0
230
1.0
 40
0.382813
 41
-2.3873646144929803
 42
-1.5375789156771229
  0
ELLIPSE
  5
83
100
AcDbEntity
  8
2022OUTLINE-INSIDE
  6
CONTINUOUS
100
AcDbEllipse
 10
46.991222
 20
79.392404
 30
0.0
 11
0.0075840853894103
 21
-12.4390157928914231
 31
0.0
210
0.0
220
0.0
230
1.0
 40
0.382813
 41
-1.537578915677114
 42
-0.6725095331251795
  0
ELLIPSE
  5
84
100
AcDbEntity
  8
2022OUTLINE-INSIDE
  6
CONTINUOUS
100
AcDbEllipse
 10
47.108992
 20
80.187561
 30
0.0
 11
0.1533630334227603
 21
-13.4110611332733001
 31
0.0
210
0.0
220
0.0
230
1.0
 40
0.382813
 41
-0.672509533125214
 42
-0.0058556480234739
  0
ELLIPSE
  5
85
100
AcDbEntity
  8
2022OUTLINE-INSIDE
  6
CONTINUOUS
100
AcDbEllipse
 10
49.261304
 20
77.57625
 30
0.0
 11
-2.0048284932135205
 21
-10.8045433747531803
 31
0.0
210
0.0
220
0.0
230
1.0
 40
0.382813
 41
-0.0058556480234691
 42
0.7542280390967248
  0
SPLINE
  5
86
100
AcDbEntity
  8
2022OUTLINE-INSIDE
  6
CONTINUOUS
100
AcDbSpline
210
0.0
220
0.0
230
1.0
 70
     8
 71
     3
 72
    11
 73
     7
 74
     0
 42
0.0000001
 43
0.0000001
 40
0.0
 40
0.0
 40
0.0
 40
0.0
 40
0.3533135366493652
 40
0.3533135366493652
 40
0.3533135366493652
 40
0.50559345755001
 40
0.50559345755001
 40
0.50559345755001
 40
0.50559345755001
 10
61.4322895784804999
 20
84.0763841452666298
 30
0.0
 10
61.8322895750477102
 20
81.3763841684381504
 30
0.0
 10
61.8492886067489707
 20
78.4538569504509695
 30
0.0
 10
61.5442374992043639
 20
75.3593610236071783
 30
0.0
 10
61.4127589292970555
 20
74.0256176311631151
 30
0.0
 10
61.2214545996853374
 20
72.659928409796791
 30
0.0
 10
60.8322895836297235
 20
71.6763842516833591
 30
0.0
  0
SPLINE
  5
87
100
AcDbEntity
  8
2022OUTLINE-INSIDE
  6
CONTINUOUS
100
AcDbSpline
210
0.0
220
0.0
230
1.0
 70
     8
 71
     3
 72
    32
 73
    28
 74
     0
 42
0.0000001
 43
0.0000001
 40
0.0
 40
0.0
 40
0.0
 40
0.0
 40
0.29850920428994
 40
0.29850920428994
 40
0.29850920428994
 40
0.60496015011497
 40
0.60496015011497
 40
0.60496015011497
 40
0.85776059353582
 40
0.85776059353582
 40
0.85776059353582
 40
0.93914576890282
 40
0.93914576890282
 40
0.93914576890282
 40
1.0706841433759999
 40
1.0706841433759999
 40
1.0706841433759999
 40
1.3269706605136999
 40
1.3269706605136999
 40
1.3269706605136999
 40
1.4652165724920001
 40
1.4652165724920001
 40
1.4652165724920001
 40
1.565314302732238
 40
1.565314302732238
 40
1.565314302732238
 40
1.8265435413691999
 40
1.8265435413691999
 40
1.8265435413691999
 40
1.8265435413691999
 10
60.8322895836297235
 20
71.6763842516833591
 30
0.0
 10
62.2322895716149063
 20
73.1763842388104138
 30
0.0
 10
63.5514885466143937
 20
74.8425749510779497
 30
0.0
 10
65.188658225301964
 20
76.3366743249753057
 30
0.0
 10
66.8693842776301608
 20
77.8705237329912308
 30
0.0
 10
68.8852251131091435
 20
79.2230031252443041
 30
0.0
 10
71.1215242689306706
 20
81.0997273710690223
 30
0.0
 10
72.9663135440668498
 20
82.6478926744779443
 30
0.0
 10
74.9611266410214085
 20
84.5528112017126432
 30
0.0
 10
75.2868145723736433
 20
86.6795891513482104
 30
0.0
 10
75.3916647421334147
 20
87.3642722715815552
 30
0.0
 10
75.3235237762984013
 20
88.071949301567372
 30
0.0
 10
75.2080195271981466
 20
88.7002585627218565
 30
0.0
 10
75.0213363738734529
 20
89.7157602005325714
 30
0.0
 10
74.7109285988919396
 20
90.5239335770101405
 30
0.0
 10
74.1883068716986145
 20
91.1443380615993988
 30
0.0
 10
73.1700420286114621
 20
92.3531207093157036
 30
0.0
 10
71.3461752319091289
 20
92.8490992055764082
 30
0.0
 10
69.4775584469132639
 20
92.6234497850603162
 30
0.0
 10
68.4695903553225662
 20
92.501730116483813
 30
0.0
 10
67.4486012138307984
 20
92.1700360217077446
 30
0.0
 10
66.7254129804872633
 20
91.2328279964535795
 30
0.0
 10
66.2017844719965467
 20
90.5542372537081235
 30
0.0
 10
65.8342800397528833
 20
89.5582018676993528
 30
0.0
 10
65.5038967577202982
 20
88.6092115363101982
 30
0.0
 10
64.6416816703590484
 20
86.1325917253749367
 30
0.0
 10
64.0322895561672851
 20
83.9763841461247438
 30
0.0
 10
61.4322895784804999
 20
84.0763841452666156
 30
0.0
  0
SPLINE
  5
88
100
AcDbEntity
  8
2022OUTLINE-INSIDE
  6
CONTINUOUS
100
AcDbSpline
210
0.0
220
0.0
230
1.0
 70
     8
 71
     3
 72
    11
 73
     7
 74
     0
 42
0.0000001
 43
0.0000001
 40
0.0
 40
0.0
 40
0.0
 40
0.0
 40
0.3812452836992024
 40
0.3812452836992024
 40
0.3812452836992024
 40
0.5300925953384
 40
0.5300925953384
 40
0.5300925953384
 40
0.5300925953384
 10
68.4322903319797717
 20
67.9763863413994045
 30
0.0
 10
71.696408411269644
 20
68.3799407879721883
 30
0.0
 10
75.5869035234905482
 20
68.1610504861728401
 30
0.0
 10
78.2344366604457662
 20
68.1517244693366422
 30
0.0
 10
79.2680971587154346
 20
68.1480833684660752
 30
0.0
 10
80.1122918370802921
 20
68.1763863413994073
 30
0.0
 10
81.8322918613924202
 20
67.5763897253310262
 30
0.0
  0
SPLINE
  5
89
100
AcDbEntity
  8
2022OUTLINE-INSIDE
  6
CONTINUOUS
100
AcDbSpline
210
0.0
220
0.0
230
1.0
 70
     8
 71
     3
 72
    41
 73
    37
 74
     0
 42
0.0000001
 43
0.0000001
 40
0.0
 40
0.0
 40
0.0
 40
0.0
 40
0.15773519579731
 40
0.15773519579731
 40
0.15773519579731
 40
0.49231766973747
 40
0.49231766973747
 40
0.49231766973747
 40
0.72210738011644
 40
0.72210738011644
 40
0.72210738011644
 40
0.9151336256014601
 40
0.9151336256014601
 40
0.9151336256014601
 40
1.0744290985973
 40
1.0744290985973
 40
1.0744290985973
 40
1.2144261820239
 40
1.2144261820239
 40
1.2144261820239
 40
1.3122479420916999
 40
1.3122479420916999
 40
1.3122479420916999
 40
1.4488152671051
 40
1.4488152671051
 40
1.4488152671051
 40
1.5961895913657
 40
1.5961895913657
 40
1.5961895913657
 40
1.7239188052304999
 40
1.7239188052304999
 40
1.7239188052304999
 40
1.907491507644792
 40
1.907491507644792
 40
1.907491507644792
 40
2.1431400236383
 40
2.1431400236383
 40
2.1431400236383
 40
2.1431400236383
 10
81.8322918613924202
 20
67.5763897253310262
 30
0.0
 10
82.6822918734071663
 20
69.296389749643339
 30
0.0
 10
83.1870268772280923
 20
69.9478974397766962
 30
0.0
 10
83.870604625276826
 20
70.7144772921193123
 30
0.0
 10
85.3205862410887192
 20
72.3405201177107386
 30
0.0
 10
87.5752428091474684
 20
74.4843121370449097
 30
0.0
 10
89.589970705558386
 20
76.306734474585113
 30
0.0
 10
90.9736765953399811
 20
77.5583657874865366
 30
0.0
 10
92.2442110224321254
 20
78.6584108947758125
 30
0.0
 10
93.5982365725185872
 20
79.6570292577089276
 30
0.0
 10
94.735635056519186
 20
80.49588123655289
 30
0.0
 10
95.9319466402390759
 20
81.2631643624437743
 30
0.0
 10
97.0241846041659812
 20
82.4854541256724616
 30
0.0
 10
97.9255571747745392
 20
83.4941523235897733
 30
0.0
 10
98.7560511992165289
 20
84.8127293266720557
 30
0.0
 10
99.2533891848873822
 20
85.9720077873775352
 30
0.0
 10
99.6904754759271867
 20
86.9908415327802231
 30
0.0
 10
99.8702386530620316
 20
87.8866362448335394
 30
0.0
 10
99.688322153886503
 20
88.8702759770266084
 30
0.0
 10
99.5612095619727597
 20
89.5575857946357416
 30
0.0
 10
99.2575106425815648
 20
90.2877850265794706
 30
0.0
 10
98.7594751593266409
 20
90.8932703266271602
 30
0.0
 10
98.0641761413704529
 20
91.7385782387434006
 30
0.0
 10
96.9901057227631469
 20
92.3408126410383119
 30
0.0
 10
95.8246972021877639
 20
92.4858643088633556
 30
0.0
 10
94.567066263085124
 20
92.6423943684987137
 30
0.0
 10
93.2030695191716205
 20
92.2665221945671874
 30
0.0
 10
92.1386675100975623
 20
91.4731109054651625
 30
0.0
 10
91.2161511047654301
 20
90.7854619494010393
 30
0.0
 10
90.5186805457625212
 20
89.7841711544727161
 30
0.0
 10
90.16608788961058
 20
88.9372838478843448
 30
0.0
 10
89.659340961615257
 20
87.7201355792404343
 30
0.0
 10
89.8649566053896507
 20
86.8219154446834835
 30
0.0
 10
89.2333702000885012
 20
85.7911495095832919
 30
0.0
 10
88.4226156751864067
 20
84.4679764029694553
 30
0.0
 10
86.2322919235866152
 20
82.9263899423040272
 30
0.0
 10
84.0322903319797092
 20
84.1763863413994216
 30
0.0
  0
SPLINE
  5
8A
100
AcDbEntity
  8
2022OUTLINE-INSIDE
  6
CONTINUOUS
100
AcDbSpline
210
0.0
220
0.0
230
1.0
 70
     8
 71
     3
 72
    14
 73
    10
 74
     0
 42
0.0000001
 43
0.0000001
 40
0.0
 40
0.0
 40
0.0
 40
0.0
 40
0.74451714184977
 40
0.74451714184977
 40
0.74451714184977
 40
0.8795426550096282
 40
0.8795426550096282
 40
0.8795426550096282
 40
0.97605531981143
 40
0.97605531981143
 40
0.97605531981143
 40
0.97605531981143
 10
84.0322903319797092
 20
84.1763863413994216
 30
0.0
 10
83.008473880022791
 20
80.8802930233613893
 30
0.0
 10
79.241803543341419
 20
76.7403049500950232
 30
0.0
 10
75.2913413213043015
 20
73.6513775689279413
 30
0.0
 10
74.5748861065540893
 20
73.0911701790492288
 30
0.0
 10
73.8523857206284617
 20
72.5655336397125694
 30
0.0
 10
72.2406517742844869
 20
71.2263867387667489
 30
0.0
 10
71.0886269867243925
 20
70.2691999601589146
 30
0.0
 10
69.4822916868245386
 20
68.8963897439893174
 30
0.0
 10
68.4322903319797717
 20
67.9763863413994045
 30
0.0
  0
MTEXT
  5
8C
100
AcDbEntity
  8
LETTER2022PLAIN
100
AcDbMText
 10
23.882289
 20
76.676377
 30
0.0
 40
38.524757
 41
46.5
 71
     5
 72
     5
  1
\C7;\fArial Rounded MT Bold|b0|i0|;\H38.524756759778;2
  0
MTEXT
  5
8D
100
AcDbEntity
  8
LETTER2022PLAIN
100
AcDbMText
 10
47.382289
 20
76.676377
 30
0.0
 40
38.524757
 41
46.5
 71
     5
 72
     5
  1
\C9;\fArial Rounded MT Bold|b0|i0|;\H38.524756759778;0
  0
MTEXT
  5
8E
100
AcDbEntity
  8
LETTER2022PLAIN
100
AcDbMText
 10
70.382289
 20
76.676377
 30
0.0
 40
38.524757
 41
46.5
 71
     5
 72
     5
  1
\C7;\fArial Rounded MT Bold|b0|i0|;\H38.524756759778;2
  0
MTEXT
  5
8F
100
AcDbEntity
  8
LETTER2022PLAIN
100
AcDbMText
 10
94.882291
 20
76.676377
 30
0.0
 40
38.524757
 41
46.5
 71
     5
 72
     5
  1
\C9;\fArial Rounded MT Bold|b0|i0|;\H38.524756759778;2
  0
LWPOLYLINE
  5
91
100
AcDbEntity
  8
FEETOUTLINE
  6
CONTINUOUS
100
AcDbPolyline
 90
       16
 70
     1
 10
48.580956
 20
0.176389
 10
50.632289
 20
0.176389
 42
0.414112
 10
58.632288
 20
8.173625
 10
58.632288
 20
15.176394
 10
54.505263
 20
15.176394
 10
9.63229
 20
15.176394
 10
9.63229
 20
8.176389
 42
0.413805
 10
17.621116
 20
0.176397
 10
29.63229
 20
0.176397
 10
29.63229
 20
8.176397
 10
31.132289
 20
8.176397
 10
31.132289
 20
0.176389
 10
47.025232
 20
0.176389
 10
46.989431
 20
0.189419
 10
50.40963
 20
9.58634
 10
51.81917
 20
9.073309
  0
LWPOLYLINE
  5
92
100
AcDbEntity
  8
FEETOUTLINE
  6
CONTINUOUS
100
AcDbPolyline
 90
       16
 70
     1
 10
70.683625
 20
0.176389
 10
68.632292
 20
0.176389
 42
-0.414112
 10
60.632293
 20
8.173625
 10
60.632293
 20
15.176394
 10
64.759317
 20
15.176394
 10
109.63229
 20
15.176394
 10
109.63229
 20
8.176389
 42
-0.413805
 10
101.643464
 20
0.176397
 10
89.63229
 20
0.176397
 10
89.63229
 20
8.176397
 10
88.132292
 20
8.176397
 10
88.132292
 20
0.176389
 10
72.239349
 20
0.176389
 10
72.275149
 20
0.189419
 10
68.85495
 20
9.58634
 10
67.445411
 20
9.073309
  0
SPLINE
  5
93
100
AcDbEntity
  8
0
  6
CONTINUOUS
 62
    10
100
AcDbSpline
210
0.0
220
0.0
230
1.0
 70
     8
 71
     3
 72
     8
 73
     4
 74
     0
 42
0.0000001
 43
0.0000001
 40
0.0
 40
0.0
 40
0.0
 40
0.0
 40
0.10854865802561
 40
0.10854865802561
 40
0.10854865802561
 40
0.10854865802561
 10
109.632290331979803
 20
63.5763863413995693
 30
0.0
 10
109.6322903319797462
 20
64.6763797450620928
 30
0.0
 10
109.2679947730287893
 20
66.2584793876215912
 30
0.0
 10
109.0880577529537305
 20
66.3395734850547427
 30
0.0
  0
SPLINE
  5
94
100
AcDbEntity
  8
0
  6
CONTINUOUS
 62
    10
100
AcDbSpline
210
0.0
220
0.0
230
1.0
 70
     8
 71
     3
 72
     8
 73
     4
 74
     0
 42
0.0000001
 43
0.0000001
 40
0.10854865802561
 40
0.10854865802561
 40
0.10854865802561
 40
0.10854865802561
 40
0.77681478368835
 40
0.77681478368835
 40
0.77681478368835
 40
0.77681478368835
 10
109.0880577529537021
 20
66.3395734850547285
 30
0.0
 10
107.3646607875947296
 20
68.9935702417293868
 30
0.0
 10
97.4682498171038532
 20
67.8198619424584734
 30
0.0
 10
93.1322906891505369
 20
67.8263796572045834
 30
0.0
  0
SPLINE
  5
95
100
AcDbEntity
  8
0
  6
CONTINUOUS
 62
    10
100
AcDbSpline
210
0.0
220
0.0
230
1.0
 70
     8
 71
     3
 72
    29
 73
    25
 74
     0
 42
0.0000001
 43
0.0000001
 40
0.0
 40
0.0
 40
0.0
 40
0.0
 40
0.0597764134659
 40
0.0597764134659
 40
0.0597764134659
 40
0.1159824819176
 40
0.1159824819176
 40
0.1159824819176
 40
1.6295242222162001
 40
1.6295242222162001
 40
1.6295242222162001
 40
1.7906071247522
 40
1.7906071247522
 40
1.7906071247522
 40
2.0836775578530999
 40
2.0836775578530999
 40
2.0836775578530999
 40
2.2039984413422999
 40
2.2039984413422999
 40
2.2039984413422999
 40
2.4697464654262
 40
2.4697464654262
 40
2.4697464654262
 40
2.9874454446195999
 40
2.9874454446195999
 40
2.9874454446195999
 40
2.9874454446195999
 10
93.1322906891505369
 20
67.8263796572045834
 30
0.0
 10
95.1322869431637628
 20
69.5563796089530797
 30
0.0
 10
99.43246145166178
 20
73.3380206607509848
 30
0.0
 10
101.6370752946657774
 20
75.284584161558513
 30
0.0
 10
103.7100112469057791
 20
77.1148826861483343
 30
0.0
 10
103.9302393325197755
 20
77.3227692851025097
 30
0.0
 10
104.1420277176607811
 20
77.5299526489755522
 30
0.0
 10
109.8451585334398004
 20
83.109077426006337
 30
0.0
 10
109.4283175268827506
 20
88.1782576985862079
 30
0.0
 10
108.7613614610337862
 20
92.343888499341432
 30
0.0
 10
108.6903788008997793
 20
92.7872273795409228
 30
0.0
 10
108.6165631188808192
 20
93.220331868277114
 30
0.0
 10
108.1508963574247986
 20
94.0598851758049364
 30
0.0
 10
107.3036732362117647
 20
95.587348659356465
 30
0.0
 10
105.1593718956368235
 20
98.460210784904902
 30
0.0
 10
101.206681319260781
 20
99.4685154050071816
 30
0.0
 10
99.5838931816897315
 20
99.8824776782855395
 30
0.0
 10
97.6562945426688174
 20
99.9821620865065057
 30
0.0
 10
96.0404931909258011
 20
99.9976556482050682
 30
0.0
 10
92.4717360135708333
 20
100.0318756712646859
 30
0.0
 10
90.4239829764237584
 20
99.6553973612967923
 30
0.0
 10
88.7311226716017671
 20
99.033185239696266
 30
0.0
 10
85.4332917479497951
 20
97.8210649189349368
 30
0.0
 10
83.4822872680997676
 20
95.6763788804264834
 30
0.0
 10
82.8322872862294588
 20
94.1763863413993931
 30
0.0
  0
SPLINE
  5
96
100
AcDbEntity
  8
0
  6
CONTINUOUS
 62
    10
100
AcDbSpline
210
0.0
220
0.0
230
1.0
 70
     8
 71
     3
 72
    20
 73
    16
 74
     0
 42
0.0000001
 43
0.0000001
 40
0.0
 40
0.0
 40
0.0
 40
0.0
 40
0.1233693463463
 40
0.1233693463463
 40
0.1233693463463
 40
0.27259004887385
 40
0.27259004887385
 40
0.27259004887385
 40
0.45776643945338
 40
0.45776643945338
 40
0.45776643945338
 40
0.69924839908778
 40
0.69924839908778
 40
0.69924839908778
 40
1.163695716848
 40
1.163695716848
 40
1.163695716848
 40
1.163695716848
 10
82.8322872862294588
 20
94.1763863413993931
 30
0.0
 10
82.2846464313377766
 20
95.2045969606136566
 30
0.0
 10
81.6579533295497981
 20
96.0577297378266479
 30
0.0
 10
80.9230696581787754
 20
96.7610099556841305
 30
0.0
 10
80.0341952257057727
 20
97.6116586078031787
 30
0.0
 10
78.9870382424678041
 20
98.2430733153670843
 30
0.0
 10
77.8166608581077668
 20
98.7394066977910398
 30
0.0
 10
76.3642735151947676
 20
99.3553348010948554
 30
0.0
 10
74.7221300980207701
 20
99.7632413289850888
 30
0.0
 10
72.9686426434207789
 20
99.9323187607676573
 30
0.0
 10
70.6819818795627555
 20
100.1528066395396621
 30
0.0
 10
68.2059711988198103
 20
99.967145517932849
 30
0.0
 10
66.0724272371027581
 20
99.3963909543865185
 30
0.0
 10
61.9689373869987605
 20
98.2986467314229344
 30
0.0
 10
59.1322879472577583
 20
95.7763788776371001
 30
0.0
 10
58.4322879667817574
 20
94.1763863413994784
 30
0.0
  0
SPLINE
  5
97
100
AcDbEntity
  8
0
  6
CONTINUOUS
 62
    10
100
AcDbSpline
210
0.0
220
0.0
230
1.0
 70
     8
 71
     3
 72
    20
 73
    16
 74
     0
 42
0.0000001
 43
0.0000001
 40
0.0
 40
0.0
 40
0.0
 40
0.0
 40
0.089043884595
 40
0.089043884595
 40
0.089043884595
 40
0.1484033506237
 40
0.1484033506237
 40
0.1484033506237
 40
0.30490860173997
 40
0.30490860173997
 40
0.30490860173997
 40
1.0050070958657999
 40
1.0050070958657999
 40
1.0050070958657999
 40
1.2105484332005001
 40
1.2105484332005001
 40
1.2105484332005001
 40
1.2105484332005001
 10
58.4322879667817574
 20
94.1763863413994784
 30
0.0
 10
57.8122879840747714
 20
95.6763788804265687
 30
0.0
 10
56.8733256976617625
 20
96.7665828159337593
 30
0.0
 10
55.9846862164077663
 20
97.5486495602009569
 30
0.0
 10
55.392291069462793
 20
98.0699999544429488
 30
0.0
 10
54.8222592599647172
 20
98.4544148983292473
 30
0.0
 10
54.2847069141717569
 20
98.7549392588274628
 30
0.0
 10
52.8674137595137594
 20
99.5472920822771812
 30
0.0
 10
51.6759012480607396
 20
99.7564804160400627
 30
0.0
 10
50.5210499635337484
 20
99.8913586059814378
 30
0.0
 10
45.3550274852437738
 20
100.4947122761871725
 30
0.0
 10
40.9226187436867264
 20
99.6110741881467021
 30
0.0
 10
38.3097045728387542
 20
97.6564231530837503
 30
0.0
 10
37.5425812644427381
 20
97.0825587737989224
 30
0.0
 10
36.9322885664487615
 20
96.4163788597866898
 30
0.0
 10
36.1322885887618597
 20
94.576378911107426
 30
0.0
  0
SPLINE
  5
98
100
AcDbEntity
  8
0
  6
CONTINUOUS
 62
    10
100
AcDbSpline
210
0.0
220
0.0
230
1.0
 70
     8
 71
     3
 72
    20
 73
    16
 74
     0
 42
0.0000001
 43
0.0000001
 40
0.0
 40
0.0
 40
0.0
 40
0.0
 40
0.1790262057067
 40
0.1790262057067
 40
0.1790262057067
 40
0.3227273959051
 40
0.3227273959051
 40
0.3227273959051
 40
0.48515990501974
 40
0.48515990501974
 40
0.48515990501974
 40
0.81512714244674
 40
0.81512714244674
 40
0.81512714244674
 40
1.4658269226389
 40
1.4658269226389
 40
1.4658269226389
 40
1.4658269226389
 10
36.1322885887618597
 20
94.576378911107426
 30
0.0
 10
35.4928879028877517
 20
96.2449467510632957
 30
0.0
 10
33.8305299904147461
 20
98.1900389733380479
 30
0.0
 10
31.7222370191887499
 20
99.1388798608787312
 30
0.0
 10
30.0299472895567519
 20
99.9004977721239555
 30
0.0
 10
28.050342008827748
 20
100.0202318582429939
 30
0.0
 10
26.1394268572437447
 20
100.0317572663101089
 30
0.0
 10
23.979425660676764
 20
100.0447850007942776
 30
0.0
 10
21.9071890905147448
 20
99.9195556913447973
 30
0.0
 10
20.1940242799767482
 20
99.6257019438441063
 30
0.0
 10
16.7138818942477485
 20
99.0287641153347096
 30
0.0
 10
14.7154965015843437
 20
97.7359752944110767
 30
0.0
 10
13.2601812705836437
 20
96.3109522666670301
 30
0.0
 10
10.3902802819075539
 20
93.5007879056447138
 30
0.0
 10
9.6322903319797817
 20
90.1763863413999758
 30
0.0
 10
9.6322903319797426
 20
88.1763863413994784
 30
0.0
  0
SPLINE
  5
99
100
AcDbEntity
  8
0
  6
CONTINUOUS
 62
    10
100
AcDbSpline
210
0.0
220
0.0
230
1.0
 70
     8
 71
     3
 72
    32
 73
    28
 74
     0
 42
0.0000001
 43
0.0000001
 40
0.0
 40
0.0
 40
0.0
 40
0.0
 40
0.3118806602844
 40
0.3118806602844
 40
0.3118806602844
 40
0.4631948056201
 40
0.4631948056201
 40
0.4631948056201
 40
0.6524990003149
 40
0.6524990003149
 40
0.6524990003149
 40
0.7847270481027
 40
0.7847270481027
 40
0.7847270481027
 40
1.0354205021056
 40
1.0354205021056
 40
1.0354205021056
 40
1.4276841733001999
 40
1.4276841733001999
 40
1.4276841733001999
 40
1.5731110908062
 40
1.5731110908062
 40
1.5731110908062
 40
1.6864830394481001
 40
1.6864830394481001
 40
1.6864830394481001
 40
2.4191183534081002
 40
2.4191183534081002
 40
2.4191183534081002
 40
2.4191183534081002
 10
9.6322903319797426
 20
88.1763863413994784
 30
0.0
 10
9.4766743130933619
 20
85.6710530440789739
 30
0.0
 10
11.5080039992649432
 20
83.6678999359152868
 30
0.0
 10
13.939884481173344
 20
83.5607418195229172
 30
0.0
 10
15.1197521791033456
 20
83.5087522579299417
 30
0.0
 10
16.3939042608630459
 20
83.9030549555103988
 30
0.0
 10
17.3034077104174493
 20
84.8541287062766685
 30
0.0
 10
18.4412578281842485
 20
86.0439860727820047
 30
0.0
 10
19.0083709759479476
 20
88.1052845906189788
 30
0.0
 10
19.8892773768967501
 20
89.6587426126664724
 30
0.0
 10
20.5045861600387411
 20
90.743825391242865
 30
0.0
 10
21.2729932187537507
 20
91.5811351428898632
 30
0.0
 10
22.1135497178007512
 20
92.0414239310085804
 30
0.0
 10
23.7071753937147562
 20
92.9140934444931901
 30
0.0
 10
25.5601424287177466
 20
92.4315600813270066
 30
0.0
 10
26.742634526643748
 20
91.4761970592618781
 30
0.0
 10
28.5928970049197417
 20
89.9813267290833068
 30
0.0
 10
28.8016146921487568
 20
87.3288127336516737
 30
0.0
 10
27.4798130472397517
 20
84.8987438301027311
 30
0.0
 10
26.9897713918697519
 20
83.9978257591169921
 30
0.0
 10
26.2893653393457463
 20
83.1274819688153173
 30
0.0
 10
25.005549947645747
 20
81.9259106074477472
 30
0.0
 10
24.0047128595097448
 20
80.9891893387404025
 30
0.0
 10
22.6493114743187505
 20
79.8511660629956879
 30
0.0
 10
21.4129264675547475
 20
78.816309124130953
 30
0.0
 10
13.4231253883922417
 20
72.12882824908732
 30
0.0
 10
10.4034938663133349
 20
69.749613124099838
 30
0.0
 10
9.6322903319797426
 20
64.3763797534303421
 30
0.0
  0
LINE
  5
9A
100
AcDbEntity
  8
0
  6
CONTINUOUS
 62
    10
100
AcDbLine
 10
9.63229
 20
64.37638
 30
0.0
 11
9.63229
 21
58.176386
 31
0.0
  0
LINE
  5
9B
100
AcDbEntity
  8
0
  6
CONTINUOUS
 62
    10
100
AcDbLine
 10
9.63229
 20
58.176386
 30
0.0
 11
9.63229
 21
56.176386
 31
0.0
  0
LINE
  5
9C
100
AcDbEntity
  8
0
  6
CONTINUOUS
 62
    10
100
AcDbLine
 10
9.63229
 20
56.176386
 30
0.0
 11
9.63229
 21
17.176386
 31
0.0
  0
LINE
  5
9D
100
AcDbEntity
  8
0
  6
CONTINUOUS
 62
    10
100
AcDbLine
 10
9.63229
 20
17.176386
 30
0.0
 11
24.632291
 21
17.176386
 31
0.0
  0
LINE
  5
9E
100
AcDbEntity
  8
0
  6
CONTINUOUS
 62
    10
100
AcDbLine
 10
24.632291
 20
17.176386
 30
0.0
 11
24.632291
 21
22.4328
 31
0.0
  0
LINE
  5
9F
100
AcDbEntity
  8
0
  6
CONTINUOUS
 62
    10
100
AcDbLine
 10
24.632291
 20
22.4328
 30
0.0
 11
26.132288
 21
22.4328
 31
0.0
  0
LINE
  5
A0
100
AcDbEntity
  8
0
  6
CONTINUOUS
 62
    10
100
AcDbLine
 10
26.132288
 20
22.4328
 30
0.0
 11
26.132288
 21
17.176386
 31
0.0
  0
LINE
  5
A1
100
AcDbEntity
  8
0
  6
CONTINUOUS
 62
    10
100
AcDbLine
 10
26.132288
 20
17.176386
 30
0.0
 11
93.132285
 21
17.176386
 31
0.0
  0
LINE
  5
A2
100
AcDbEntity
  8
0
  6
CONTINUOUS
 62
    10
100
AcDbLine
 10
93.132285
 20
17.176386
 30
0.0
 11
93.132285
 21
22.4328
 31
0.0
  0
LINE
  5
A3
100
AcDbEntity
  8
0
  6
CONTINUOUS
 62
    10
100
AcDbLine
 10
93.132285
 20
22.4328
 30
0.0
 11
94.632293
 21
22.4328
 31
0.0
  0
LINE
  5
A4
100
AcDbEntity
  8
0
  6
CONTINUOUS
 62
    10
100
AcDbLine
 10
94.632293
 20
22.4328
 30
0.0
 11
94.632293
 21
17.176386
 31
0.0
  0
LINE
  5
A5
100
AcDbEntity
  8
0
  6
CONTINUOUS
 62
    10
100
AcDbLine
 10
94.632293
 20
17.176386
 30
0.0
 11
109.63229
 21
17.176386
 31
0.0
  0
LINE
  5
A6
100
AcDbEntity
  8
0
  6
CONTINUOUS
 62
    10
100
AcDbLine
 10
109.63229
 20
17.176386
 30
0.0
 11
109.63229
 21
56.176386
 31
0.0
  0
LINE
  5
A7
100
AcDbEntity
  8
0
  6
CONTINUOUS
 62
    10
100
AcDbLine
 10
109.63229
 20
56.176386
 30
0.0
 11
109.63229
 21
58.176386
 31
0.0
  0
LINE
  5
A8
100
AcDbEntity
  8
0
  6
CONTINUOUS
 62
    10
100
AcDbLine
 10
109.63229
 20
58.176386
 30
0.0
 11
109.63229
 21
63.576386
 31
0.0
  0
ENDSEC
  0
SECTION
  2
OBJECTS
  0
DICTIONARY
  5
C
100
AcDbDictionary
  3
ACAD_GROUP
350
D
  3
ACAD_MLINESTYLE
350
1B
  3
ACAD_SCALELIST
350
2C
  3
ACAD_VISUALSTYLE
350
51
  3
ACAD_MATERIAL
350
6A
  3
ACAD_TABLESTYLE
350
6E
  3
ACAD_MLEADERSTYLE
350
70
  0
DICTIONARY
  5
D
102
{ACAD_REACTORS
330
C
102
}
100
AcDbDictionary
  0
DICTIONARY
  5
1B
102
{ACAD_REACTORS
330
C
102
}
100
AcDbDictionary
  3
STANDARD
350
1C
  0
MLINESTYLE
  5
1C
102
{ACAD_REACTORS
330
1B
102
}
100
AcDbMlineStyle
  2
STANDARD
 70
     0
  3

 62
   256
 51
90.0
 52
90.0
 71
     2
 49
0.5
 62
   256
  6
BYLAYER
 49
-0.5
 62
   256
  6
BYLAYER
  0
DICTIONARY
  5
29
102
{ACAD_REACTORS
330
C
102
}
100
AcDbDictionary
  0
DICTIONARY
  5
2C
102
{ACAD_REACTORS
330
C
102
}
100
AcDbDictionary
  3
A0
350
2D
  3
A1
350
2E
  3
A2
350
2F
  3
A3
350
30
  3
A4
350
31
  3
A5
350
32
  3
A6
350
33
  3
A7
350
34
  3
A8
350
35
  3
A9
350
36
  3
B0
350
37
  3
B1
350
38
  3
B2
350
39
  3
B3
350
3A
  3
B4
350
3B
  3
B5
350
3C
  3
B6
350
3D
  3
B7
350
3E
  3
B8
350
3F
  3
B9
350
40
  3
C0
350
41
  3
C1
350
42
  3
C2
350
43
  3
C3
350
44
  3
C4
350
45
  3
C5
350
46
  3
C6
350
47
  3
C7
350
48
  3
C8
350
49
  3
C9
350
4A
  3
D0
350
4B
  3
D1
350
4C
  3
D2
350
4D
  0
DICTIONARY
  5
4E
102
{ACAD_REACTORS
330
C
102
}
100
AcDbDictionary
  3
MODEL
350
4F
  3
LAYOUT1
350
50
  0
DICTIONARY
  5
51
102
{ACAD_REACTORS
330
C
102
}
100
AcDbDictionary
  3
FLAT
350
52
  3
FLATWITHEDGES
350
53
  3
GOURAUD
350
54
  3
GOURAUDWITHEDGES
350
55
  3
2DWIREFRAME
350
56
  3
WIREFRAME
350
57
  3
HIDDEN
350
58
  3
BASIC
350
59
  3
REALISTIC
350
5A
  3
CONCEPTUAL
350
5B
  3
DIM
350
5C
  3
BRIGHTEN
350
5D
  3
THICKEN
350
5E
  3
LINEPATTERN
350
5F
  3
FACEPATTERN
350
60
  3
COLORCHANGE
350
61
  3
JITTEROFF
350
62
  3
OVERHANGOFF
350
63
  3
EDGECOLOROFF
350
64
  3
SHADES OF GRAY
350
65
  3
SKETCHY
350
66
  3
X-RAY
350
67
  3
SHADED WITH EDGES
350
68
  3
SHADED
350
69
  0
DICTIONARY
  5
6A
102
{ACAD_REACTORS
330
C
102
}
100
AcDbDictionary
  3
BYLAYER
350
6B
  3
BYBLOCK
350
6C
  3
GLOBAL
350
6D
  0
DICTIONARY
  5
6E
102
{ACAD_REACTORS
330
C
102
}
100
AcDbDictionary
  3
STANDARD
350
6F
  0
DICTIONARY
  5
70
102
{ACAD_REACTORS
330
C
102
}
100
AcDbDictionary
  3
STANDARD
350
71
  0
ENDSEC
  0
EOF
